<?xml version="1.0" encoding="UTF-8"?>
<svg version="1.1" xmlns="http://www.w3.org/2000/svg" width="160" height="160">
<path d="M0 0 C0.9375 2.0625 0.9375 2.0625 1 4 C-0.67659482 5.67659482 -2.81648781 5.2664516 -5.06811523 5.44262695 C-14.22590055 6.23065433 -22.52104357 8.38797104 -30 14 C-31.18564436 16.90599108 -31.2224398 18.31394883 -30.2578125 21.2890625 C-29.88398437 22.05992188 -29.51015625 22.83078125 -29.125 23.625 C-27.4671051 27.40724838 -26.74174099 30.43995734 -26.5625 34.5625 C-25.78154679 45.97397958 -16.9205433 54.47961132 -10 63 C-1.8400874 55.19486621 3.30585189 47.92225328 3.83520508 36.54638672 C3.86121825 34.63673282 3.86336144 32.72656537 3.83862305 30.81689453 C3.7419024 23.07785076 4.85923486 16.48494743 10.3125 10.49609375 C17.37044229 4.2387051 27.00210195 -1.24755656 36 -4 C38.25390625 -3.21484375 38.25390625 -3.21484375 40 -2 C40.99 -1.505 40.99 -1.505 42 -1 C41.70917718 5.3011611 36.7118696 9.12846253 32.66015625 13.47265625 C28.35046293 18.0338717 28.35046293 18.0338717 27 24 C28.29094187 27.79688785 29.38545452 29.57124734 32.6875 31.875 C36.56592414 33.19220065 39.98299001 33.89903827 44 33 C46.54602997 31.11500451 48.30734353 28.78030404 50.1875 26.25 C51.17665907 24.98098758 52.17007631 23.71528144 53.16796875 22.453125 C53.87252197 21.5569043 53.87252197 21.5569043 54.59130859 20.64257812 C56.48866276 18.43020398 58.64544793 16.70457517 61 15 C63.5625 16.5 63.5625 16.5 66 19 C66.39634512 29.50314569 60.89386258 43.22606986 54 51 C47.29514297 57.5600437 39.67497587 59.92746243 30.4375 60.25 C19.62923446 61.069728 12.64074218 71.3333394 6 79 C7.66076833 83.1468882 10.65979449 86.06719325 13.6875 89.25 C14.78462792 90.41984774 15.88098677 91.59041724 16.9765625 92.76171875 C17.50282227 93.32294434 18.02908203 93.88416992 18.57128906 94.46240234 C20.27483021 96.29577592 21.92728263 98.16804085 23.5625 100.0625 C26.4779856 103.43419851 29.48100581 106.72119302 32.5 110 C36.08098062 113.8943841 39.65679814 117.78859637 43.1015625 121.8046875 C44.65755761 123.60400695 46.23889151 125.37030207 47.8359375 127.1328125 C48.84944154 128.27561331 49.86246086 129.41884419 50.875 130.5625 C51.60879883 131.35805298 51.60879883 131.35805298 52.35742188 132.16967773 C55.71344051 136.00910033 56.83142132 138.91855703 57 144 C55.11032215 149.35408724 52.05935077 152.47032461 47 155 C41.86735507 155.38736943 39.10756595 155.10016291 35 152 C32.64773109 149.27704504 30.58053694 146.37087359 28.5 143.4375 C27.88906494 142.59195557 27.27812988 141.74641113 26.64868164 140.87524414 C25.379164 139.11630545 24.11365351 137.35446805 22.85205078 135.58984375 C21.12758009 133.17840359 19.39273359 130.77496598 17.65234375 128.375 C13.20733782 122.2424077 8.78519626 116.09346581 4.3671875 109.94140625 C3.77236572 109.11455322 3.17754395 108.2877002 2.56469727 107.43579102 C1.42034623 105.84498841 0.27753576 104.25307615 -0.86352539 102.65991211 C-1.63297485 101.59075562 -1.63297485 101.59075562 -2.41796875 100.5 C-3.09508911 99.55640625 -3.09508911 99.55640625 -3.78588867 98.59375 C-5.04954807 96.86112759 -5.04954807 96.86112759 -7 95 C-14.86253544 104.33401553 -21.57595263 114.35542224 -27.91796875 124.765625 C-42.95425964 149.35780371 -42.95425964 149.35780371 -54 154 C-59.93841154 154.76979409 -64.1459125 153.28693975 -69 150 C-72.14845599 147.30243401 -73.80884566 144.6451459 -75 140.625 C-75 130.87783289 -69.48287189 125.6129295 -63 119 C-62.1646875 118.13761719 -61.329375 117.27523437 -60.46875 116.38671875 C-56.23680372 112.08293388 -51.90803481 107.97200242 -47.33203125 104.0390625 C-34.95310587 93.21815105 -34.95310587 93.21815105 -24 81 C-23.40574219 80.37222656 -22.81148438 79.74445313 -22.19921875 79.09765625 C-20.7212224 77.0483339 -20.7212224 77.0483339 -21.48046875 74.65625 C-23.40929068 71.28453044 -25.76788149 68.41296303 -28.3125 65.5 C-28.78623047 64.94441406 -29.25996094 64.38882813 -29.74804688 63.81640625 C-35.93973688 56.61676671 -40.89073694 51.32563545 -50.25 48.8125 C-51.51328125 48.46832031 -52.7765625 48.12414063 -54.078125 47.76953125 C-55.52445313 47.38861328 -55.52445313 47.38861328 -57 47 C-58.21118872 48.98109951 -58.21118872 48.98109951 -57.77734375 51.3515625 C-58 54 -58 54 -59.94140625 56.2734375 C-66.85893531 61.81983189 -66.85893531 61.81983189 -71.5625 62.5625 C-79.61586893 58.90187776 -86.0146524 50.79989458 -90 43 C-90.82421875 40.4609375 -90.82421875 40.4609375 -91 38 C-89.46083672 35.25749088 -87.22969035 33.202499 -85 31 C-84.401875 30.360625 -83.80375 29.72125 -83.1875 29.0625 C-79.61582825 27.32768801 -75.89889756 27.7750636 -72 28 C-71.9071875 26.205625 -71.9071875 26.205625 -71.8125 24.375 C-71.54430901 19.18997429 -68.09766016 15.93851808 -64.47143555 12.58740234 C-62.82500021 11.17932965 -61.14751646 9.8300921 -59.4375 8.5 C-58.82616211 8.0244165 -58.21482422 7.54883301 -57.58496094 7.05883789 C-39.79431522 -6.43155724 -20.76272748 -8.08977382 0 0 Z M-63.9375 133.1875 C-65.21953359 135.009518 -65.21953359 135.009518 -64.9375 137.5 C-63.77150576 140.60931798 -62.97023456 141.51488272 -60 143 C-55.28664949 143.50714933 -55.28664949 143.50714933 -51 141.8125 C-49.79871777 139.98018628 -49.79871777 139.98018628 -50 137.5 C-50.83028518 134.84671194 -50.83028518 134.84671194 -53.1875 133.1875 C-57.04659525 131.55810423 -60.23719148 130.91956897 -63.9375 133.1875 Z " fill="#252628" transform="translate(91,5)"/>
<path d="M0 0 C0.9375 2.0625 0.9375 2.0625 1 4 C-0.67659482 5.67659482 -2.81648781 5.2664516 -5.06811523 5.44262695 C-14.22590055 6.23065433 -22.52104357 8.38797104 -30 14 C-31.18564436 16.90599108 -31.2224398 18.31394883 -30.2578125 21.2890625 C-29.88398437 22.05992188 -29.51015625 22.83078125 -29.125 23.625 C-27.4671051 27.40724838 -26.74174099 30.43995734 -26.5625 34.5625 C-25.78154679 45.97397958 -16.9205433 54.47961132 -10 63 C-9.38898438 62.38382812 -8.77796875 61.76765625 -8.1484375 61.1328125 C-6.67889236 59.67395496 -5.16817654 58.2557369 -3.625 56.875 C-0.56897512 53.52792513 1.42384935 49.9855762 3.5703125 46.01171875 C4.04210937 45.34785156 4.51390625 44.68398438 5 44 C5.99 44 6.98 44 8 44 C9.05771739 45.63064764 10.05273046 47.30280873 11 49 C11.556875 49.474375 12.11375 49.94875 12.6875 50.4375 C14 52 14 52 14.5625 54.75 C13.7551361 59.41476918 11.22741924 61.6922967 8 65 C7.38125 65.78375 6.7625 66.5675 6.125 67.375 C2.90934024 69.83403393 0.00237123 69.73317525 -4 70 C-4 70.99 -4 71.98 -4 73 C-4.4890573 76.79019408 -6.11844925 78.55504785 -9 81 C-9.66 81 -10.32 81 -11 81 C-11 80.34 -11 79.68 -11 79 C-11.66 79 -12.32 79 -13 79 C-14.68816933 77.35511706 -16.35353315 75.68662458 -18 74 C-19.485 73.01 -19.485 73.01 -21 72 C-22.55488005 68.71083066 -23.8500254 65.44992381 -25 62 C-25.66 62 -26.32 62 -27 62 C-27.66 61.01 -28.32 60.02 -29 59 C-30.69102108 58.27053993 -32.38566501 57.54775609 -34.1015625 56.87890625 C-36 56 -36 56 -39.0625 53.5625 C-44.19893853 49.6569131 -50.84555072 48.52794233 -57 47 C-58.21118872 48.98109951 -58.21118872 48.98109951 -57.77734375 51.3515625 C-58 54 -58 54 -59.94140625 56.2734375 C-66.85893531 61.81983189 -66.85893531 61.81983189 -71.5625 62.5625 C-79.61586893 58.90187776 -86.0146524 50.79989458 -90 43 C-90.82421875 40.4609375 -90.82421875 40.4609375 -91 38 C-89.46083672 35.25749088 -87.22969035 33.202499 -85 31 C-84.401875 30.360625 -83.80375 29.72125 -83.1875 29.0625 C-79.61582825 27.32768801 -75.89889756 27.7750636 -72 28 C-71.9071875 26.205625 -71.9071875 26.205625 -71.8125 24.375 C-71.54430901 19.18997429 -68.09766016 15.93851808 -64.47143555 12.58740234 C-62.82500021 11.17932965 -61.14751646 9.8300921 -59.4375 8.5 C-58.82616211 8.0244165 -58.21482422 7.54883301 -57.58496094 7.05883789 C-39.79431522 -6.43155724 -20.76272748 -8.08977382 0 0 Z " fill="#39383A" transform="translate(91,5)"/>
<path d="M0 0 C-0.29082282 6.3011611 -5.2881304 10.12846253 -9.33984375 14.47265625 C-13.64953707 19.0338717 -13.64953707 19.0338717 -15 25 C-13.70905813 28.79688785 -12.61454548 30.57124734 -9.3125 32.875 C-5.43407586 34.19220065 -2.01700999 34.89903827 2 34 C4.54602997 32.11500451 6.30734353 29.78030404 8.1875 27.25 C9.17665907 25.98098758 10.17007631 24.71528144 11.16796875 23.453125 C11.6376709 22.85564453 12.10737305 22.25816406 12.59130859 21.64257812 C14.48866276 19.43020398 16.64544793 17.70457517 19 16 C21.5625 17.5 21.5625 17.5 24 20 C24.36727782 29.73286215 19.37596994 42.51468576 13.7578125 50.32421875 C10.69171655 53.24723022 7.08554342 54.21012827 3 55 C3 55.66 3 56.32 3 57 C-3.96733669 59.09543961 -12.40194137 59.44805305 -19.18359375 56.71875 C-25.97048618 52.57695712 -33.10800118 46.64980333 -36 39 C-36.79818029 31.97754844 -37.48243678 24.24469425 -33.6875 18 C-26.43172979 9.07897106 -12.01612682 -1.63856275 0 0 Z " fill="#91979F" transform="translate(133,4)"/>
<path d="M0 0 C0 0.66 0 1.32 0 2 C-0.79921875 2.01417969 -1.5984375 2.02835938 -2.421875 2.04296875 C-10.67295452 2.40129028 -17.76563335 3.86265973 -25 8 C-25.66 8.99 -26.32 9.98 -27 11 C-28.11375 11.474375 -29.2275 11.94875 -30.375 12.4375 C-33.83068402 13.92701897 -35.58096984 15.19392502 -38 18 C-37.67 18.33 -37.34 18.66 -37 19 C-34.94603274 18.59070014 -34.94603274 18.59070014 -33 18 C-30.74001405 21.59462331 -30.79131913 24.56595675 -30.875 28.75 C-30.89304688 29.92046875 -30.91109375 31.0909375 -30.9296875 32.296875 C-30.95289063 33.18890625 -30.97609375 34.0809375 -31 35 C-35.92618922 37.41282737 -39.39294195 38.52896774 -45 38 C-45.61359375 37.67 -46.2271875 37.34 -46.859375 37 C-49.53987183 35.7477971 -51.61340506 35.69953712 -54.5625 35.6875 C-55.51253906 35.67074219 -56.46257813 35.65398438 -57.44140625 35.63671875 C-60.02881728 35.79721462 -60.02881728 35.79721462 -61.828125 37.3515625 C-63.43430664 39.61092467 -63.21923607 41.29608847 -63 44 C-64.32 44 -65.64 44 -67 44 C-66.67 44.99 -66.34 45.98 -66 47 C-66.7425 46.7525 -67.485 46.505 -68.25 46.25 C-69.1575 46.1675 -70.065 46.085 -71 46 C-72.35432675 47.31200404 -73.68733482 48.64631404 -75 50 C-77.35546875 50.421875 -77.35546875 50.421875 -80 50 C-82.23828125 47.98828125 -82.23828125 47.98828125 -84.3125 45.3125 C-85.00988281 44.44238281 -85.70726563 43.57226562 -86.42578125 42.67578125 C-88.1794675 39.69494979 -88.64957235 38.38318932 -88 35 C-85.5800313 31.52241536 -82.68491913 29.07408305 -79 27 C-75.14669335 26.63442988 -71.75178826 27.10237589 -68 28 C-68.05542969 27.31035156 -68.11085938 26.62070312 -68.16796875 25.91015625 C-68.20037428 21.18542977 -67.98143355 18.12612091 -64.80078125 14.4765625 C-61.95669587 12.15210778 -59.0444821 10.05372179 -56 8 C-55.23816406 7.4225 -54.47632813 6.845 -53.69140625 6.25 C-38.24458674 -5.08711524 -17.96171989 -3.83648386 0 0 Z " fill="#9CA6B3" transform="translate(90,7)"/>
<path d="M0 0 C3.30308238 1.10102746 3.81766643 1.57551227 5.5625 4.4375 C6.59765625 6.6171875 6.59765625 6.6171875 7 9 C5.59151882 12.7520536 3.33536477 15.76764285 1 19 C0.31425306 20.19760804 -0.35518971 21.40486329 -1 22.625 C-3.36399313 26.6142384 -5.87205407 30.55925948 -9 34 C-9.66 34 -10.32 34 -11 34 C-11.185625 35.2065625 -11.185625 35.2065625 -11.375 36.4375 C-11.58125 37.283125 -11.7875 38.12875 -12 39 C-12.99 39.495 -12.99 39.495 -14 40 C-14.3383061 41.33208028 -14.6704375 42.66572962 -15 44 C-26.17401392 65.78267595 -26.17401392 65.78267595 -34 71 C-40.98591549 71.67605634 -40.98591549 71.67605634 -45 69 C-45.66 68.34 -46.32 67.68 -47 67 C-46.505 66.01 -46.505 66.01 -46 65 C-45.13375 65.680625 -44.2675 66.36125 -43.375 67.0625 C-40.18787138 69.26449212 -40.18787138 69.26449212 -36.8125 69 C-33.56413719 67.84502656 -32.62768182 66.99836124 -31 64 C-30.29485154 61.85266073 -30.29485154 61.85266073 -30 60 C-30.66 60 -31.32 60 -32 60 C-32.433125 59.0409375 -32.433125 59.0409375 -32.875 58.0625 C-33.82823451 55.84793921 -33.82823451 55.84793921 -36 55 C-42.81782936 54.56003846 -42.81782936 54.56003846 -49 57 C-50.31314333 59.29270589 -51.11572786 61.4868055 -52 64 C-52.66 64 -53.32 64 -54 64 C-54.71647881 58.38758268 -53.5798216 55.29060644 -50.3046875 50.72265625 C-46.03388562 45.67731911 -41.26461562 41.11910353 -36.5390625 36.50390625 C-34.03883419 34.05461091 -31.67167327 31.57319387 -29.4375 28.875 C-25.71987429 24.45247383 -21.39291408 20.68297091 -17.1328125 16.79663086 C-13.27855878 13.25786645 -9.75748287 9.60130835 -6.38671875 5.59375 C-4.45664711 3.37552682 -2.4776851 1.58296548 0 0 Z " fill="#74686D" transform="translate(72,82)"/>
<path d="M0 0 C2 1 2 1 3.375 3.125 C4 6 4 6 2.1875 9.375 C1.80980469 9.89835937 1.43210938 10.42171875 1.04296875 10.9609375 C-0.21301692 13.11787468 -0.21301692 13.11787468 -0.36328125 16.33203125 C-1.09747 20.56149897 -2.78617511 23.03508491 -5.375 26.3125 C-9.4909099 31.76941439 -13.13401829 37.37488852 -16.625 43.25 C-30.61385944 66.53795315 -30.61385944 66.53795315 -41 70 C-47.01256147 70.58946681 -51.08702875 69.32681282 -56 66 C-59.14845599 63.30243401 -60.80884566 60.6451459 -62 56.625 C-62 44.53065762 -52.3532336 37.33570936 -44.4375 29.375 C-42.96086775 27.91410051 -41.48264975 26.45479203 -40 25 C-39.34 25.33 -38.68 25.66 -38 26 C-38.4940332 26.47832275 -38.98806641 26.95664551 -39.49707031 27.44946289 C-41.75610617 29.64568886 -44.00305036 31.85391291 -46.25 34.0625 C-47.02730469 34.81466797 -47.80460937 35.56683594 -48.60546875 36.34179688 C-54.97736085 42.63199805 -59.25413914 47.86320444 -60 57 C-59.34 57 -58.68 57 -58 57 C-57.87625 56.4225 -57.7525 55.845 -57.625 55.25 C-56.0625 49.625 -56.0625 49.625 -52.875 47.75 C-49.00219718 46.73970361 -46.01063078 46.67656203 -42 47 C-40.2578125 48.51953125 -40.2578125 48.51953125 -39 50 C-39.69867188 49.90460938 -40.39734375 49.80921875 -41.1171875 49.7109375 C-42.02726562 49.60007813 -42.93734375 49.48921875 -43.875 49.375 C-44.77992187 49.25898438 -45.68484375 49.14296875 -46.6171875 49.0234375 C-47.40351562 49.01570313 -48.18984375 49.00796875 -49 49 C-49.66 49.66 -50.32 50.32 -51 51 C-50.90888062 53.53951544 -50.90888062 53.53951544 -50 56 C-46.26744552 58.48836965 -44.41559065 58.54226552 -40 58 C-37.52791204 55.64167228 -37.52791204 55.64167228 -36 53 C-36.25766646 56.77910801 -36.62195008 58.57874438 -39.1875 61.4375 C-42 63 -42 63 -45.0625 62.875 C-47.58595027 62.12333396 -49.7261102 61.3118595 -52 60 C-48.97630333 63.02369667 -46.30246465 63.39312296 -42.09765625 63.59375 C-36.51878556 62.01462832 -33.4028904 55.91308601 -30.5 51.25 C-29.91798828 50.32900513 -29.91798828 50.32900513 -29.32421875 49.3894043 C-23.95978214 41.04094093 -23.95978214 41.04094093 -20 32 C-19.34 32 -18.68 32 -18 32 C-17.9175 31.2575 -17.835 30.515 -17.75 29.75 C-16.82578683 26.36121838 -15.5439158 25.40640684 -13 23 C-9.371172 18.58270937 -6.42923887 14.18973759 -4 9 C-3.27889584 7.74533159 -2.54947571 6.49541191 -1.8125 5.25 C0.1623561 2.32908603 0.1623561 2.32908603 0 0 Z " fill="#634C4E" transform="translate(78,89)"/>
<path d="M0 0 C0.53496094 0.38027344 1.06992188 0.76054688 1.62109375 1.15234375 C1.62109375 1.48234375 1.62109375 1.81234375 1.62109375 2.15234375 C-0.20421875 2.67828125 -0.20421875 2.67828125 -2.06640625 3.21484375 C-12.30027447 6.64230041 -25.48948853 12.61807323 -30.71484375 22.7734375 C-32.52383176 29.25387102 -32.66077802 37.36912042 -30.49609375 43.7578125 C-26.61343868 50.40460943 -19.51150678 56.33657604 -12.37890625 59.15234375 C-9.04403327 59.60653095 -5.79878635 59.53510707 -2.44140625 59.40234375 C-1.56677734 59.38429687 -0.69214844 59.36625 0.20898438 59.34765625 C2.34683483 59.30092728 4.4841142 59.22919816 6.62109375 59.15234375 C6.62109375 58.49234375 6.62109375 57.83234375 6.62109375 57.15234375 C8.93359375 55.46484375 8.93359375 55.46484375 11.62109375 54.15234375 C12.61109375 54.48234375 13.60109375 54.81234375 14.62109375 55.15234375 C8.27344623 59.82491762 2.97554735 62.97730961 -5.0078125 63.23828125 C-14.37805784 63.57712183 -18.88809968 67.43074788 -25.16015625 74.0625 C-27.61874508 76.71389418 -30.01144752 79.41913983 -32.37890625 82.15234375 C-32.06179687 82.755625 -31.7446875 83.35890625 -31.41796875 83.98046875 C-30.27948061 86.36016576 -29.81105782 88.55943435 -29.37890625 91.15234375 C-33.11774957 88.49579718 -35.02868799 86.57123988 -36.37890625 82.15234375 C-37.36890625 82.15234375 -38.35890625 82.15234375 -39.37890625 82.15234375 C-39.70890625 81.16234375 -40.03890625 80.17234375 -40.37890625 79.15234375 C-40.87390625 78.65734375 -41.36890625 78.16234375 -41.87890625 77.65234375 C-43.37890625 76.15234375 -43.37890625 76.15234375 -44.37890625 73.15234375 C-43.73824219 73.10078125 -43.09757812 73.04921875 -42.4375 72.99609375 C-37.05539086 72.29024337 -33.97578748 71.34997259 -30.37890625 67.15234375 C-29.3664894 65.82841403 -28.36451236 64.49635208 -27.37890625 63.15234375 C-26.71890625 62.49234375 -26.05890625 61.83234375 -25.37890625 61.15234375 C-24.79447662 58.27996642 -24.79447662 58.27996642 -25.37890625 55.15234375 C-27.8164065 52.46466797 -27.8164065 52.46466797 -30.37890625 50.15234375 C-30.37890625 49.16234375 -30.37890625 48.17234375 -30.37890625 47.15234375 C-31.36890625 47.15234375 -32.35890625 47.15234375 -33.37890625 47.15234375 C-33.60578125 48.03921875 -33.83265625 48.92609375 -34.06640625 49.83984375 C-35.55079138 53.58614907 -37.4029411 55.48963809 -40.37890625 58.15234375 C-39.40988464 55.54343942 -38.5446263 53.3671505 -36.8359375 51.15234375 C-34.65045548 46.65247729 -34.92480865 42.28090952 -34.87890625 37.33984375 C-34.79601821 28.52410865 -34.34389594 20.54246636 -28.06640625 13.6484375 C-22.35440021 8.58432103 -7.6415328 -2.72284502 0 0 Z " fill="#3C3939" transform="translate(129.37890625,1.84765625)"/>
<path d="M0 0 C0.99 0 1.98 0 3 0 C4.05771739 1.63064764 5.05273046 3.30280873 6 5 C6.556875 5.474375 7.11375 5.94875 7.6875 6.4375 C9 8 9 8 9.5625 10.75 C8.7551361 15.41476918 6.22741924 17.6922967 3 21 C2.38125 21.78375 1.7625 22.5675 1.125 23.375 C-2.09065976 25.83403393 -4.99762877 25.73317525 -9 26 C-9 26.99 -9 27.98 -9 29 C-9.3062434 30.33981486 -9.63451555 31.67511887 -10 33 C-14 33 -14 33 -16.76953125 30.2890625 C-17.79733102 29.07902754 -18.81097994 27.85687441 -19.8125 26.625 C-20.6027356 25.67403442 -20.6027356 25.67403442 -21.40893555 24.70385742 C-30.8491252 13.22700878 -30.8491252 13.22700878 -33 9 C-32.67 8.01 -32.34 7.02 -32 6 C-24.88113608 9.45809582 -19.73580803 12.60025942 -15 19 C-14.443125 18.443125 -13.88625 17.88625 -13.3125 17.3125 C-11.791096 15.791096 -10.22845389 14.30966927 -8.625 12.875 C-5.56897512 9.52792513 -3.57615065 5.9855762 -1.4296875 2.01171875 C-0.95789063 1.34785156 -0.48609375 0.68398438 0 0 Z " fill="#7F7F85" transform="translate(96,49)"/>
<path d="M0 0 C0.99 0.33 1.98 0.66 3 1 C3.87858735 3.90492465 4.31564847 5.37554021 2.91796875 8.140625 C-1.86522149 13.97115035 -7.01861688 19.37454286 -13 24 C-13.66 24 -14.32 24 -15 24 C-15.495 25.485 -15.495 25.485 -16 27 C-17.671875 28.6484375 -17.671875 28.6484375 -19.75 30.375 C-22.04692395 32.32292137 -24.24355074 34.24355074 -26.375 36.375 C-28.86197288 38.86197288 -31.40469369 41.25171104 -34 43.625 C-34.825 44.38039062 -35.65 45.13578125 -36.5 45.9140625 C-38.89941565 47.91607493 -41.31090719 49.42303604 -44 51 C-45.25524054 51.98859626 -46.48721083 53.0078639 -47.6875 54.0625 C-48.26886719 54.56910156 -48.85023437 55.07570312 -49.44921875 55.59765625 C-50.66506455 56.69712387 -51.84088179 57.84088179 -53 59 C-52.54188315 54.12281749 -51.4310079 51.77834923 -48.0625 48.25 C-47.25167969 47.39148438 -46.44085938 46.53296875 -45.60546875 45.6484375 C-42.20348508 42.19034915 -38.77413711 38.76176367 -35.3203125 35.35546875 C-33.35549945 33.36088581 -31.54184232 31.33500952 -29.75 29.1875 C-25.90459663 24.6737289 -21.50705492 20.78695367 -17.1340332 16.79785156 C-13.27945567 13.25857795 -9.75786443 9.60176199 -6.38671875 5.59375 C-4.45664711 3.37552682 -2.4776851 1.58296548 0 0 Z " fill="#ABBDCA" transform="translate(72,82)"/>
<path d="M0 0 C0.66 0.33 1.32 0.66 2 1 C1.79632813 1.72960937 1.59265625 2.45921875 1.3828125 3.2109375 C0.93727984 6.45696114 1.46379839 7.71500496 2.875 10.625 C4.5328949 14.40724838 5.25825901 17.43995734 5.4375 21.5625 C5.90410026 29.41693769 9.92334481 35.17124775 15 41 C14.505 41.99 14.505 41.99 14 43 C11.03 41.35 8.06 39.7 5 38 C6.33634859 41.80087085 7.99859584 44.52759659 10.5625 47.625 C11.26632813 48.48351562 11.97015625 49.34203125 12.6953125 50.2265625 C13.45585938 51.14179687 14.21640625 52.05703125 15 53 C16.64746863 54.99865317 18.2933311 56.99863147 19.9375 59 C20.68902344 59.9075 21.44054687 60.815 22.21484375 61.75 C24 64 24 64 25 66 C18.86128098 63.27168043 14.92493246 58.94818965 11 53.625 C10.16791505 52.51208637 9.33458441 51.40010299 8.5 50.2890625 C8.09233398 49.74354736 7.68466797 49.19803223 7.26464844 48.63598633 C5.98147504 46.97603557 4.63529834 45.38975067 3.265625 43.80078125 C-0.73722721 38.85242774 -1.24352788 33.17785562 -2 27 C-5.55379856 28.38160037 -5.55379856 28.38160037 -8.9375 30.125 C-11.82551113 31.35021684 -13.89474305 31.38815712 -17 31 C-17.598125 30.360625 -18.19625 29.72125 -18.8125 29.0625 C-22.09276312 25.96968049 -25.63302785 26.18662274 -30 26 C-29.67 25.34 -29.34 24.68 -29 24 C-27.25034642 23.94570041 -25.50020213 23.90707177 -23.75 23.875 C-22.77546875 23.85179688 -21.8009375 23.82859375 -20.796875 23.8046875 C-17.93200273 24.00474841 -16.47885449 24.65075009 -14 26 C-9.11715688 26.36169208 -5.5739826 25.62344171 -1 24 C-0.97298592 21.89590361 -0.95359777 19.79170822 -0.9375 17.6875 C-0.92589844 16.51574219 -0.91429688 15.34398437 -0.90234375 14.13671875 C-0.85100102 10.96940805 -0.85100102 10.96940805 -2 8 C-4.16874252 8.50603992 -5.99967627 8.99983813 -8 10 C-7.44449305 6.40094092 -6.25112752 5.00090201 -3.4375 2.75 C-2.47650391 1.96882813 -2.47650391 1.96882813 -1.49609375 1.171875 C-1.00238281 0.78515625 -0.50867188 0.3984375 0 0 Z " fill="#7B7572" transform="translate(59,18)"/>
<path d="M0 0 C0.9375 2.0625 0.9375 2.0625 1 4 C-0.72155079 5.72155079 -3.00962559 5.3676548 -5.32177734 5.59643555 C-11.90830951 6.24977347 -17.49881804 7.06981758 -23.3984375 10.29296875 C-23.92695312 10.52628906 -24.45546875 10.75960938 -25 11 C-25.99 10.505 -25.99 10.505 -27 10 C-25.3970947 9.18501438 -23.79262722 8.37310073 -22.1875 7.5625 C-21.29417969 7.11003906 -20.40085937 6.65757813 -19.48046875 6.19140625 C-15.20848022 4.13950625 -12.01664568 3.8909243 -7.3125 3.9375 C-5.54326172 3.95103516 -5.54326172 3.95103516 -3.73828125 3.96484375 C-2.83464844 3.97644531 -1.93101563 3.98804688 -1 4 C-1 3.34 -1 2.68 -1 2 C-28.79348255 -0.99368268 -28.79348255 -0.99368268 -54 9 C-54.55929199 9.38349609 -55.11858398 9.76699219 -55.69482422 10.16210938 C-57.4408007 11.374907 -59.15863434 12.62073279 -60.875 13.875 C-61.46796875 14.28363281 -62.0609375 14.69226563 -62.671875 15.11328125 C-64.61760177 16.48769865 -64.61760177 16.48769865 -67 19 C-67.34375115 22.00524652 -67.34375115 22.00524652 -67 25 C-68 27.875 -68 27.875 -69 30 C-69.70125 29.91878906 -70.4025 29.83757813 -71.125 29.75390625 C-76.7087707 29.38216065 -80.27280153 29.52575729 -84.6875 33.1875 C-86.99948017 35.3141511 -87.8973187 36.36075856 -88.3984375 39.48046875 C-87.91785514 42.51944541 -86.93024606 43.80996471 -84.9375 46.125 C-83.21484375 48.1328125 -83.21484375 48.1328125 -82 50 C-82.33 50.99 -82.66 51.98 -83 53 C-84.15627814 51.44521347 -85.2996219 49.88080281 -86.4375 48.3125 C-87.07558594 47.44238281 -87.71367188 46.57226562 -88.37109375 45.67578125 C-90.03103626 42.94901717 -90.85461877 41.1828106 -91 38 C-89.46083672 35.25749088 -87.22969035 33.202499 -85 31 C-84.401875 30.360625 -83.80375 29.72125 -83.1875 29.0625 C-79.61582825 27.32768801 -75.89889756 27.7750636 -72 28 C-71.9071875 26.205625 -71.9071875 26.205625 -71.8125 24.375 C-71.54430901 19.18997429 -68.09766016 15.93851808 -64.47143555 12.58740234 C-62.82500021 11.17932965 -61.14751646 9.8300921 -59.4375 8.5 C-58.82616211 8.0244165 -58.21482422 7.54883301 -57.58496094 7.05883789 C-39.79431522 -6.43155724 -20.76272748 -8.08977382 0 0 Z " fill="#212222" transform="translate(91,5)"/>
<path d="M0 0 C1.134375 0.33 2.26875 0.66 3.4375 1 C3.60765625 1.84304687 3.7778125 2.68609375 3.953125 3.5546875 C4.19546875 4.65039062 4.4378125 5.74609375 4.6875 6.875 C4.91953125 7.96554688 5.1515625 9.05609375 5.390625 10.1796875 C6.14965792 13.11287849 6.14965792 13.11287849 8.484375 14.2578125 C9.12890625 14.50273438 9.7734375 14.74765625 10.4375 15 C10.7675 15.66 11.0975 16.32 11.4375 17 C10.1175 17 8.7975 17 7.4375 17 C7.7675 17.99 8.0975 18.98 8.4375 20 C7.695 19.7525 6.9525 19.505 6.1875 19.25 C4.82625 19.12625 4.82625 19.12625 3.4375 19 C2.08317325 20.31200404 0.75016518 21.64631404 -0.5625 23 C-2.91796875 23.421875 -2.91796875 23.421875 -5.5625 23 C-7.80078125 20.98828125 -7.80078125 20.98828125 -9.875 18.3125 C-10.57238281 17.44238281 -11.26976562 16.57226562 -11.98828125 15.67578125 C-13.74286362 12.6934266 -14.22849376 11.38411464 -13.5625 8 C-10.16621556 3.42445012 -6.00181907 -0.7945163 0 0 Z " fill="#6E8297" transform="translate(15.5625,34)"/>
<path d="M0 0 C0.53496094 0.38027344 1.06992188 0.76054688 1.62109375 1.15234375 C1.62109375 1.48234375 1.62109375 1.81234375 1.62109375 2.15234375 C-0.20421875 2.67828125 -0.20421875 2.67828125 -2.06640625 3.21484375 C-12.30027447 6.64230041 -25.48948853 12.61807323 -30.71484375 22.7734375 C-32.52383176 29.25387102 -32.66077802 37.36912042 -30.49609375 43.7578125 C-26.61343868 50.40460943 -19.51150678 56.33657604 -12.37890625 59.15234375 C-9.04403327 59.60653095 -5.79878635 59.53510707 -2.44140625 59.40234375 C-1.56677734 59.38429687 -0.69214844 59.36625 0.20898438 59.34765625 C2.34683483 59.30092728 4.4841142 59.22919816 6.62109375 59.15234375 C6.62109375 58.49234375 6.62109375 57.83234375 6.62109375 57.15234375 C8.93359375 55.46484375 8.93359375 55.46484375 11.62109375 54.15234375 C12.61109375 54.48234375 13.60109375 54.81234375 14.62109375 55.15234375 C4.81040227 62.37410275 -3.41202602 63.45914032 -15.37890625 64.15234375 C-15.46785156 63.55164063 -15.55679688 62.9509375 -15.6484375 62.33203125 C-16.5744009 59.56899609 -17.67330034 58.89098087 -20.06640625 57.27734375 C-22.87109931 55.30199541 -25.32230645 53.32204128 -27.69140625 50.83984375 C-30.15064098 47.97998018 -30.15064098 47.97998018 -33.37890625 47.15234375 C-33.60578125 48.03921875 -33.83265625 48.92609375 -34.06640625 49.83984375 C-35.55079138 53.58614907 -37.4029411 55.48963809 -40.37890625 58.15234375 C-39.40988464 55.54343942 -38.5446263 53.3671505 -36.8359375 51.15234375 C-34.65045548 46.65247729 -34.92480865 42.28090952 -34.87890625 37.33984375 C-34.79601821 28.52410865 -34.34389594 20.54246636 -28.06640625 13.6484375 C-22.35440021 8.58432103 -7.6415328 -2.72284502 0 0 Z " fill="#232224" transform="translate(129.37890625,1.84765625)"/>
<path d="M0 0 C4.23057757 4.17384569 8.31183619 8.47601091 12.375 12.8125 C13.00921875 13.48603516 13.6434375 14.15957031 14.296875 14.85351562 C18.08383721 18.8916539 21.77567625 22.99646909 25.40576172 27.17602539 C27.51965242 29.59453648 29.6954507 31.95315623 31.875 34.3125 C48.03235577 52.02629829 48.03235577 52.02629829 47.9375 57.8125 C47.11647179 63.11986091 44.45089573 66.20267647 40.125 69.375 C35.92812451 70.60937515 32.32256393 70.51099061 28.25 68.9375 C25.16822986 66.28375349 24.36549504 63.80901248 23 60 C23.66 60 24.32 60 25 60 C25 60.66 25 61.32 25 62 C25.66 62 26.32 62 27 62 C27.43441406 62.64710938 27.86882812 63.29421875 28.31640625 63.9609375 C29.82953316 66.20075886 29.82953316 66.20075886 32.33984375 66.6015625 C38.06511846 66.71646136 38.06511846 66.71646136 42.625 63.5 C44.2909305 59.25944964 44.31132201 56.51416908 44 52 C43.34 52 42.68 52 42 52 C42 51.01 42 50.02 42 49 C41.01 49 40.02 49 39 49 C39 48.01 39 47.02 39 46 C38.34 46 37.68 46 37 46 C34.8614515 43.8614515 34.57344937 42.86724686 34 40 C33.01 40 32.02 40 31 40 C31 39.01 31 38.02 31 37 C30.01 37 29.02 37 28 37 C27.67 36.01 27.34 35.02 27 34 C26.34 33.67 25.68 33.34 25 33 C25 32.34 25 31.68 25 31 C24.34 31 23.68 31 23 31 C23 30.01 23 29.02 23 28 C22.34 28 21.68 28 21 28 C21 27.34 21 26.68 21 26 C20.01 25.67 19.02 25.34 18 25 C18 24.01 18 23.02 18 22 C17.01 22 16.02 22 15 22 C13.39453125 20.5390625 13.39453125 20.5390625 11.8125 18.625 C11.28269531 17.99851562 10.75289062 17.37203125 10.20703125 16.7265625 C9 15 9 15 9 13 C8.34 13 7.68 13 7 13 C6.87625 12.071875 6.87625 12.071875 6.75 11.125 C6.20673909 8.83330129 6.20673909 8.83330129 4.0625 7.9375 C3.381875 7.628125 2.70125 7.31875 2 7 C0 4 0 4 0 0 Z " fill="#363737" transform="translate(100,90)"/>
<path d="M0 0 C0.6875 1.6875 0.6875 1.6875 1 4 C-1.53025248 8.94436223 -5.24128329 12.60937356 -9.0390625 16.59765625 C-10.96999016 18.96323496 -11.36982593 20.1278605 -12 23 C-13.94348501 24.73223664 -15.94720004 26.39881603 -18 28 C-18.495 28.515625 -18.99 29.03125 -19.5 29.5625 C-22.40215479 32.34373168 -25.88248463 34.38746303 -29.39453125 36.3125 C-32.35256762 38.22834964 -34.42751522 40.41080813 -36.8125 43 C-41.08594909 47.38825817 -44.15706073 49.3598767 -50 51 C-53.76024616 53.50683077 -54.39192086 55.86493934 -56 60 C-56.66 60 -57.32 60 -58 60 C-58 57.69 -58 55.38 -58 53 C-57.13181641 52.61134766 -57.13181641 52.61134766 -56.24609375 52.21484375 C-53.83176762 50.90900822 -52.07870527 49.41900584 -50.0625 47.5625 C-47.16966584 44.96855645 -44.34867 42.97485666 -41 41 C-36.15950049 37.17027765 -31.77740554 32.91701058 -27.5234375 28.44921875 C-24.08248419 24.9022645 -20.50120021 21.75706078 -16.625 18.6875 C-10.22029723 13.52840149 -3.38512038 7.66475443 0 0 Z " fill="#86858D" transform="translate(76,86)"/>
<path d="M0 0 C1.31291016 -0.02513672 1.31291016 -0.02513672 2.65234375 -0.05078125 C5.0625 0.3125 5.0625 0.3125 8.0625 3.3125 C4.1025 3.3125 0.1425 3.3125 -3.9375 3.3125 C-4.2675 3.9725 -4.5975 4.6325 -4.9375 5.3125 C-3.6175 5.3125 -2.2975 5.3125 -0.9375 5.3125 C-0.82929872 8.79522874 -0.95089181 11.95700443 -1.9375 15.3125 C-3.88626351 17.14786563 -5.72410561 18.2088513 -8.125 19.375 C-10.11642157 20.17952161 -10.11642157 20.17952161 -10.9375 22.3125 C-13.5 22.75 -13.5 22.75 -16.9375 22.3125 C-19.5578019 20.22567274 -21.7533151 17.84563752 -23.9375 15.3125 C-23.6075 14.3225 -23.2775 13.3325 -22.9375 12.3125 C-22.195 12.395 -21.4525 12.4775 -20.6875 12.5625 C-17.77878762 12.59391439 -17.77878762 12.59391439 -15.875 10.25 C-15.235625 9.610625 -14.59625 8.97125 -13.9375 8.3125 C-11.6875 8.5625 -11.6875 8.5625 -9.9375 9.3125 C-9.9375 8.6525 -9.9375 7.9925 -9.9375 7.3125 C-8.6175 7.3125 -7.2975 7.3125 -5.9375 7.3125 C-6.14375 6.52875 -6.35 5.745 -6.5625 4.9375 C-6.68625 4.07125 -6.81 3.205 -6.9375 2.3125 C-4.42737037 -0.19762963 -3.46944763 0.01528391 0 0 Z " fill="#60605E" transform="translate(32.9375,43.6875)"/>
<path d="M0 0 C1.7421875 1.51953125 1.7421875 1.51953125 3 3 C2.30132812 2.90460938 1.60265625 2.80921875 0.8828125 2.7109375 C-0.02726562 2.60007813 -0.93734375 2.48921875 -1.875 2.375 C-2.77992187 2.25898438 -3.68484375 2.14296875 -4.6171875 2.0234375 C-5.40351563 2.01570312 -6.18984375 2.00796875 -7 2 C-7.66 2.66 -8.32 3.32 -9 4 C-8.90888062 6.53951544 -8.90888062 6.53951544 -8 9 C-4.26744552 11.48836965 -2.41559065 11.54226552 2 11 C4.47208796 8.64167228 4.47208796 8.64167228 6 6 C5.74233354 9.77910801 5.37804992 11.57874438 2.8125 14.4375 C0 16 0 16 -3.0625 15.875 C-5.58595027 15.12333396 -7.7261102 14.3118595 -10 13 C-7.35460092 15.64539908 -5.85356927 16.01859438 -2.0625 16.5 C1.27309818 16.36385314 1.95679453 16.03338605 4.75 13.875 C7.01042218 10.98668277 9.05073873 8.10437907 11 5 C11.33 5.66 11.66 6.32 12 7 C10.75 9.3125 10.75 9.3125 9 12 C8.54625 12.886875 8.0925 13.77375 7.625 14.6875 C5.57074903 17.61085715 4.4707606 18.17003551 1 19 C-5.09576184 19.64165914 -9.63913554 19.0020841 -15 16 C-18 12.80645161 -18 12.80645161 -18 10 C-17.34 10 -16.68 10 -16 10 C-15.87625 9.4225 -15.7525 8.845 -15.625 8.25 C-14.0625 2.625 -14.0625 2.625 -10.875 0.75 C-7.00219718 -0.26029639 -4.01063078 -0.32343797 0 0 Z " fill="#705F64" transform="translate(36,136)"/>
<path d="M0 0 C0.66 0.33 1.32 0.66 2 1 C1.55527344 1.50789063 1.11054687 2.01578125 0.65234375 2.5390625 C-2.98473168 6.84235831 -2.98473168 6.84235831 -4.1875 12.1875 C-2.71091947 15.68466442 -0.90446186 17.57961512 2 20 C5.75876779 21.2529226 9.11907113 21.8556957 13 21 C15.54699682 19.11638309 17.30740084 16.78022691 19.1875 14.25 C20.17665907 12.98098758 21.17007631 11.71528144 22.16796875 10.453125 C22.6376709 9.85564453 23.10737305 9.25816406 23.59130859 8.64257812 C25.48866276 6.43020398 27.64544793 4.70457517 30 3 C32.475 4.98 32.475 4.98 35 7 C34.67 8.32 34.34 9.64 34 11 C33.71125 10.360625 33.4225 9.72125 33.125 9.0625 C32.17176549 6.84793921 32.17176549 6.84793921 30 6 C29.75894531 6.55945313 29.51789063 7.11890625 29.26953125 7.6953125 C27.18955704 11.47126568 24.15617332 14.36969989 21.23828125 17.515625 C19.45366111 19.49645991 17.9155325 21.46104131 16.375 23.625 C14 26 14 26 10.5625 26.5625 C3.14043583 25.39059513 -0.67755139 21.84304942 -5 16 C-6.60127074 12.79745853 -6.40701607 10.54685436 -6 7 C-4.26393366 4.38830837 -2.23704394 2.19043885 0 0 Z " fill="#363534" transform="translate(122,17)"/>
<path d="M0 0 C0.66 0.33 1.32 0.66 2 1 C1.5059668 1.47832275 1.01193359 1.95664551 0.50292969 2.44946289 C-1.75610617 4.64568886 -4.00305036 6.85391291 -6.25 9.0625 C-7.02730469 9.81466797 -7.80460937 10.56683594 -8.60546875 11.34179688 C-15.78658 18.36015376 -15.78658 18.36015376 -19.49609375 27.51171875 C-19.40616172 30.85119475 -19.2883067 33.37533547 -17.875 36.4375 C-12.97904844 40.51745963 -7.0662664 40.5055222 -1 40 C1.62549686 39.60219745 3.49665107 39.02177507 6 38 C7.49743888 36.01432266 7.49743888 36.01432266 8 34 C8.99 34 9.98 34 11 34 C11.0825 33.38125 11.165 32.7625 11.25 32.125 C12 30 12 30 14.0625 28.75 C14.701875 28.5025 15.34125 28.255 16 28 C13.07855641 34.44732379 7.77971654 39.98630796 2 44 C-3.05423898 45.68474633 -7.28455532 45.58019314 -12.125 43.375 C-17.25717235 40.53486579 -20.29102181 37.39280138 -22 31.625 C-22 19.53065762 -12.3532336 12.33570936 -4.4375 4.375 C-2.96086775 2.91410051 -1.48264975 1.45479203 0 0 Z " fill="#2B2A2B" transform="translate(38,114)"/>
<path d="M0 0 C0.84755859 0.00322266 1.69511719 0.00644531 2.56835938 0.00976562 C3.44943359 0.01814453 4.33050781 0.02652344 5.23828125 0.03515625 C6.57729492 0.04192383 6.57729492 0.04192383 7.94335938 0.04882812 C10.14590112 0.06060642 12.34830724 0.07705461 14.55078125 0.09765625 C14.55078125 0.42765625 14.55078125 0.75765625 14.55078125 1.09765625 C13.47699219 1.27941406 12.40320313 1.46117187 11.296875 1.6484375 C9.86059836 1.90189808 8.42440477 2.15582953 6.98828125 2.41015625 C6.28380859 2.52810547 5.57933594 2.64605469 4.85351562 2.76757812 C-3.42791516 4.25594587 -10.45067258 8.06201952 -17.875 11.890625 C-20.44921875 13.09765625 -20.44921875 13.09765625 -22.44921875 13.09765625 C-22.44921875 13.75765625 -22.44921875 14.41765625 -22.44921875 15.09765625 C-23.58359375 15.38640625 -24.71796875 15.67515625 -25.88671875 15.97265625 C-27.06234375 16.34390625 -28.23796875 16.71515625 -29.44921875 17.09765625 C-29.77921875 17.75765625 -30.10921875 18.41765625 -30.44921875 19.09765625 C-33.51171875 19.72265625 -33.51171875 19.72265625 -36.44921875 20.09765625 C-27.99796542 11.38132671 -19.29176441 4.37808266 -7.44921875 1.09765625 C-4.6251011 0.1562837 -2.92003843 -0.01959757 0 0 Z " fill="#A4C3E4" transform="translate(59.44921875,4.90234375)"/>
<path d="M0 0 C4.12444658 1.45568703 7.54187879 3.31035017 11 6 C11.29519531 6.75152344 11.59039062 7.50304688 11.89453125 8.27734375 C13.26015095 11.64072513 15.18130421 13.96455376 17.5 16.75 C18.2940625 17.71421875 19.088125 18.6784375 19.90625 19.671875 C21.78244484 22.04372141 21.78244484 22.04372141 24 23 C23.67 24.32 23.34 25.64 23 27 C19 27 19 27 16.23046875 24.2890625 C15.20276647 23.07894474 14.18911517 21.85679708 13.1875 20.625 C12.65995117 19.99102295 12.13240234 19.3570459 11.58886719 18.70385742 C0 4.62988521 0 4.62988521 0 0 Z " fill="#A1B5CA" transform="translate(63,55)"/>
<path d="M0 0 C3.25516428 3.16474305 6.32008793 6.32752791 9 10 C9 10.66 9 11.32 9 12 C6.18113689 14.75330816 4.21715911 16.64375831 0.4375 17.75 C-2.95975216 16.70469164 -4.17036358 14.82157152 -6.04296875 11.87890625 C-7.34926992 9.31429049 -7.77841915 7.80230893 -7 5 C-4.625 3.3125 -4.625 3.3125 -2 2 C-1.34 1.34 -0.68 0.68 0 0 Z " fill="#F4FBFC" transform="translate(10,38)"/>
<path d="M0 0 C1.32 0.33 2.64 0.66 4 1 C2.43965864 5.38898159 0.17784666 9.21453829 -2.3125 13.125 C-2.69083984 13.74503906 -3.06917969 14.36507812 -3.45898438 15.00390625 C-5.89017756 18.82964172 -8.07570401 20.82508897 -12 23 C-12.33 23.99 -12.66 24.98 -13 26 C-14.31647119 26.69937532 -15.65022151 27.36729133 -17 28 C-17.33 28.66 -17.66 29.32 -18 30 C-18.66 29.67 -19.32 29.34 -20 29 C-19.401875 28.34 -18.80375 27.68 -18.1875 27 C-16.36212258 24.49662525 -15.52928814 23.0045206 -14.5625 20.1875 C-12.42143976 14.03195182 -9.05300887 8.21084072 -4 4 C-3.01 3.67 -2.02 3.34 -1 3 C-0.67 2.01 -0.34 1.02 0 0 Z " fill="#624749" transform="translate(62,122)"/>
<path d="M0 0 C8.51304348 6.95869565 8.51304348 6.95869565 11 11 C11.0625 13.5625 11.0625 13.5625 10 16 C8.36395804 17.37073786 6.69321939 18.70055256 5 20 C3.65729179 21.99371825 2.32346506 23.9934562 1 26 C-1.25023097 28.17764287 -2.40211984 28.91031798 -5.5 29.375 C-8.43206287 28.93519057 -9.80807418 27.94837851 -12 26 C-12.33 26.66 -12.66 27.32 -13 28 C-13.33 27.01 -13.66 26.02 -14 25 C-13.35933594 24.9484375 -12.71867187 24.896875 -12.05859375 24.84375 C-6.67648461 24.13789962 -3.59688123 23.19762884 0 19 C1.01241685 17.67607028 2.01439389 16.34400833 3 15 C3.66 14.34 4.32 13.68 5 13 C5.58442963 10.12762267 5.58442963 10.12762267 5 7 C2.58333229 4.24958334 2.58333229 4.24958334 0 2 C0 1.34 0 0.68 0 0 Z " fill="#70686C" transform="translate(99,50)"/>
<path d="M0 0 C0 3.93169105 -1.39419615 5.16427228 -4 8 C-4.66 8 -5.32 8 -6 8 C-6.33 8.99 -6.66 9.98 -7 11 C-8.671875 12.6484375 -8.671875 12.6484375 -10.75 14.375 C-13.04692395 16.32292137 -15.24355074 18.24355074 -17.375 20.375 C-19.8059661 22.8059661 -22.30953398 25.08771704 -24.875 27.375 C-33.84274106 35.40732144 -33.84274106 35.40732144 -41 45 C-41.6550293 43.23583984 -41.6550293 43.23583984 -42 41 C-38.94986818 35.03657632 -33.40231652 30.05123472 -28.6875 25.375 C-28.02451904 24.71330811 -27.36153809 24.05161621 -26.6784668 23.36987305 C-22.78875228 19.55617591 -18.97156143 16.38654211 -14.2734375 13.60546875 C-8.92182406 9.82623658 -4.51392577 4.72014572 0 0 Z " fill="#EDF6F9" transform="translate(61,96)"/>
<path d="M0 0 C0.598125 0.30292969 1.19625 0.60585938 1.8125 0.91796875 C3.51957508 1.76236125 5.25518226 2.54914224 7 3.3125 C10.24297204 5.13667177 11.87820442 6.98052167 14 10 C13.67 10.66 13.34 11.32 13 12 C10.03 10.35 7.06 8.7 4 7 C5.33634859 10.80087085 6.99859584 13.52759659 9.5625 16.625 C10.26632813 17.48351562 10.97015625 18.34203125 11.6953125 19.2265625 C12.45585938 20.14179687 13.21640625 21.05703125 14 22 C15.64746863 23.99865317 17.2933311 25.99863147 18.9375 28 C19.68902344 28.9075 20.44054687 29.815 21.21484375 30.75 C23 33 23 33 24 35 C17.86128098 32.27168043 13.92493246 27.94818965 10 22.625 C9.16791505 21.51208637 8.33458441 20.40010299 7.5 19.2890625 C7.09354248 18.7410498 6.68708496 18.19303711 6.26831055 17.62841797 C4.98618026 15.98225647 3.61001014 14.46527605 2.20703125 12.921875 C-0.19748832 9.73854644 -0.57564539 8.51955183 -0.3125 4.625 C-0.26738281 3.75101563 -0.22226562 2.87703125 -0.17578125 1.9765625 C-0.11777344 1.32429688 -0.05976562 0.67203125 0 0 Z " fill="#A09E9F" transform="translate(60,49)"/>
<path d="M0 0 C-0.33 1.65 -0.66 3.3 -1 5 C-2.32 5.33 -3.64 5.66 -5 6 C-5 5.34 -5 4.68 -5 4 C-13.46010611 5.02246896 -23.82226864 11.28570957 -29.875 17.1875 C-33.79567275 22.49046122 -34 30.60108602 -34 37 C-34.66 37 -35.32 37 -36 37 C-36.60607692 29.10977636 -37.11171546 22.44737034 -32.01953125 16.01953125 C-24.20135553 8.20135553 -11.64436914 -1.58786852 0 0 Z " fill="#A0B9D3" transform="translate(133,4)"/>
<path d="M0 0 C1.32 0.66 2.64 1.32 4 2 C3.34 4.97 2.68 7.94 2 11 C1.67 11 1.34 11 1 11 C0.505 8.525 0.505 8.525 0 6 C-4.95437421 9.71578066 -8.51180324 13.97282749 -12.265625 18.890625 C-14.10445679 21.12704204 -15.02251038 21.83674063 -17.84765625 22.30859375 C-23.78274807 22.65402237 -27.35512736 21.24841317 -32.11328125 17.7109375 C-35.7661102 14.39843423 -36.91778708 11.47983263 -37.1875 6.625 C-37.125625 5.75875 -37.06375 4.8925 -37 4 C-36.7525 4.53625 -36.505 5.0725 -36.25 5.625 C-33.05640203 11.69283614 -29.72902445 16.75699185 -23 19 C-18.70684796 19.47756964 -16.77349546 19.61788771 -13.33984375 16.875 C-12.54707031 15.92625 -11.75429687 14.9775 -10.9375 14 C-10.09316406 13.00355469 -9.24882812 12.00710937 -8.37890625 10.98046875 C-5.50260918 7.37683219 -2.6568846 3.76932002 0 0 Z " fill="#AFC3D5" transform="translate(152,23)"/>
<path d="M0 0 C0.53496094 0.38027344 1.06992188 0.76054688 1.62109375 1.15234375 C1.62109375 1.48234375 1.62109375 1.81234375 1.62109375 2.15234375 C-0.20421875 2.67828125 -0.20421875 2.67828125 -2.06640625 3.21484375 C-13.00100804 6.87698527 -24.4280883 12.45873399 -30.25390625 22.77734375 C-32.87475939 28.41432625 -33.26263726 34.00065715 -33.37890625 40.15234375 C-33.70890625 40.15234375 -34.03890625 40.15234375 -34.37890625 40.15234375 C-35.09140851 21.36339534 -35.09140851 21.36339534 -28.06640625 13.6484375 C-22.35440021 8.58432103 -7.6415328 -2.72284502 0 0 Z " fill="#282828" transform="translate(129.37890625,1.84765625)"/>
<path d="M0 0 C0 3 0 3 -1.5 4.6875 C-1.995 5.120625 -2.49 5.55375 -3 6 C-0.0745356 6.2236068 -0.0745356 6.2236068 2 5 C0.52278578 8.45201639 -1.43794001 10.64961936 -4.125 13.25 C-4.84945312 13.95640625 -5.57390625 14.6628125 -6.3203125 15.390625 C-6.87460937 15.92171875 -7.42890625 16.4528125 -8 17 C-8 16.01 -8 15.02 -8 14 C-12.34449835 17.22333749 -15.98838307 20.98435064 -19.71875 24.87890625 C-22.02848839 27.02648835 -24.17437814 28.60131718 -27 30 C-27.66 29.67 -28.32 29.34 -29 29 C-19.60027599 19.42692042 -19.60027599 19.42692042 -15.0625 15.625 C-9.54143495 10.92019098 -4.82339619 5.3997211 0 0 Z " fill="#8F979A" transform="translate(69,84)"/>
<path d="M0 0 C0.78181641 -0.00410889 1.56363281 -0.00821777 2.36914062 -0.01245117 C3.6134082 0.00144653 3.6134082 0.00144653 4.8828125 0.015625 C5.73037109 0.02166748 6.57792969 0.02770996 7.45117188 0.03393555 C25.72824413 0.31929862 25.72824413 0.31929862 29.8515625 3.83984375 C30.233125 4.31035156 30.6146875 4.78085938 31.0078125 5.265625 C30.6778125 6.255625 30.3478125 7.245625 30.0078125 8.265625 C28.95722656 8.36359375 27.90664062 8.4615625 26.82421875 8.5625 C19.56076626 9.3123706 13.12662957 9.99800872 6.609375 13.55859375 C6.08085938 13.79191406 5.55234375 14.02523438 5.0078125 14.265625 C4.3478125 13.935625 3.6878125 13.605625 3.0078125 13.265625 C4.6107178 12.45063938 6.21518528 11.63872573 7.8203125 10.828125 C9.16029297 10.14943359 9.16029297 10.14943359 10.52734375 9.45703125 C14.79933228 7.40513125 17.99116682 7.1565493 22.6953125 7.203125 C24.46455078 7.21666016 24.46455078 7.21666016 26.26953125 7.23046875 C27.17316406 7.24207031 28.07679687 7.25367188 29.0078125 7.265625 C29.0078125 6.605625 29.0078125 5.945625 29.0078125 5.265625 C21.32825287 4.47060451 13.6512955 3.99677272 5.93994141 3.65844727 C0.1161048 3.3739173 0.1161048 3.3739173 -0.9921875 2.265625 C-2.99177114 2.22481717 -4.99264004 2.22308144 -6.9921875 2.265625 C-3.97174116 0.25199411 -3.38408059 0.01094413 0 0 Z " fill="#505962" transform="translate(60.9921875,1.734375)"/>
<path d="M0 0 C0.99 0 1.98 0 3 0 C3.7860262 9.97379913 3.7860262 9.97379913 0.75 13.9375 C-0.1575 14.618125 -1.065 15.29875 -2 16 C-2.70125 16.763125 -3.4025 17.52625 -4.125 18.3125 C-6 20 -6 20 -9 20 C-9.38816889 15.06881744 -8.62204698 12.77727749 -5.625 8.875 C-3.44110966 5.99010782 -1.50461212 3.29798819 0 0 Z " fill="#A3B7C7" transform="translate(96,49)"/>
<path d="M0 0 C3 2 3 2 4.125 5.125 C3.96191087 10.18076307 2.11707353 11.90933519 -1.23828125 15.49609375 C-3 17 -3 17 -5 17 C-5.66 18.32 -6.32 19.64 -7 21 C-9.97 20.67 -12.94 20.34 -16 20 C-15.34 18.68 -14.68 17.36 -14 16 C-12.906875 15.896875 -11.81375 15.79375 -10.6875 15.6875 C-7.06579213 15.39012747 -7.06579213 15.39012747 -5.5 13.390625 C-4.64387007 12.11662212 -3.82249298 10.81835839 -3.04296875 9.49609375 C-2.69878906 9.00238281 -2.35460937 8.50867187 -2 8 C-1.34 8 -0.68 8 0 8 C0 5.36 0 2.72 0 0 Z " fill="#8D939B" transform="translate(99,52)"/>
<path d="M0 0 C-3.42742208 0.98030081 -5.51657075 0.78377158 -9 0 C-10.32 0 -11.64 0 -13 0 C-13 0.33 -13 0.66 -13 1 C-14.7015625 1.18175781 -14.7015625 1.18175781 -16.4375 1.3671875 C-17.95836512 1.53617251 -19.4791967 1.70545953 -21 1.875 C-21.74378906 1.95363281 -22.48757812 2.03226562 -23.25390625 2.11328125 C-27.09724564 2.5477457 -30.71068563 3.14567175 -34.4375 4.1953125 C-35.613125 4.46085938 -36.78875 4.72640625 -38 5 C-38.66 4.34 -39.32 3.68 -40 3 C-36.75835076 -0.96201573 -32.60874272 -1.6906264 -27.75 -2.625 C-17.9686976 -3.60313024 -9.56376686 -2.31514817 0 0 Z " fill="#2E3134" transform="translate(85,3)"/>
<path d="M0 0 C0.66 0.33 1.32 0.66 2 1 C0.625 2.5 0.625 2.5 -1 4 C-1.66 4 -2.32 4 -3 4 C-3.33 4.99 -3.66 5.98 -4 7 C-5.70703125 8.75390625 -5.70703125 8.75390625 -7.8125 10.5625 C-8.49957031 11.16191406 -9.18664063 11.76132813 -9.89453125 12.37890625 C-12 14 -12 14 -14.13671875 14.96484375 C-16.51225152 16.28458418 -16.86002344 17.57528794 -18 20 C-22.19276703 24.30608506 -26.98035454 27.72631818 -32 31 C-36.99731653 34.62550415 -38.9968438 37.32439077 -41 43 C-41.66 43 -42.32 43 -43 43 C-43 40.69 -43 38.38 -43 36 C-42.13181641 35.61134766 -42.13181641 35.61134766 -41.24609375 35.21484375 C-38.83176762 33.90900822 -37.07870527 32.41900584 -35.0625 30.5625 C-32.16966584 27.96855645 -29.34867 25.97485666 -26 24 C-21.72053701 20.61416037 -17.80930087 16.90453339 -14 13 C-9.5182927 8.4100389 -4.92156384 4.11804321 0 0 Z " fill="#9196A0" transform="translate(61,103)"/>
<path d="M0 0 C4.69976905 4.57274827 4.69976905 4.57274827 6.625 7.3125 C7.07875 7.869375 7.5325 8.42625 8 9 C8.99 9 9.98 9 11 9 C11.061875 9.99 11.061875 9.99 11.125 11 C12.22858415 14.78371708 14.23427641 17.12333664 16.72265625 20.1328125 C18 22 18 22 18 25 C13.78170593 23.59390198 12.3164605 20.47996957 9.9375 16.9375 C8.34313623 14.57011138 6.71785585 12.28359912 5 10 C2.63721264 9.77011494 2.63721264 9.77011494 0.375 12.5 C-0.800625 13.7375 -0.800625 13.7375 -2 15 C-2.75 13.4375 -2.75 13.4375 -3 11 C-2.05688673 9.15235536 -0.96220637 7.43981494 0.140625 5.68359375 C1.21780865 3.94966071 1.21780865 3.94966071 0.75 1.5625 C0.5025 1.046875 0.255 0.53125 0 0 Z " fill="#2F2F30" transform="translate(80,91)"/>
<path d="M0 0 C1.5625 1 1.5625 1 3 3 C3 7.65935569 2.60749646 10.69562366 -0.3125 14.375 C-3.90662472 17.88554043 -5.43802083 18.85800189 -10.4375 19.3125 C-14.34554834 18.96968874 -16.03904287 18.54971309 -19 16 C-20.27086781 13.70325094 -21.10832323 11.48730887 -22 9 C-21.34 9 -20.68 9 -20 9 C-20 9.66 -20 10.32 -20 11 C-19.34 11 -18.68 11 -18 11 C-17.56558594 11.64710938 -17.13117188 12.29421875 -16.68359375 12.9609375 C-15.17046684 15.20075886 -15.17046684 15.20075886 -12.66015625 15.6015625 C-9.98678481 15.62568314 -7.61622855 15.56949001 -5 15 C-2.10147537 12.03246288 -1.10858233 10.24869684 -0.75 6.125 C-0.87375 5.073125 -0.87375 5.073125 -1 4 C-0.34 4 0.32 4 1 4 C0.67 2.68 0.34 1.36 0 0 Z " fill="#303030" transform="translate(145,141)"/>
<path d="M0 0 C0.66 0 1.32 0 2 0 C3.625 2.5 3.625 2.5 5 5 C5.33 4.34 5.66 3.68 6 3 C6.66 3 7.32 3 8 3 C7.8865625 3.83015625 7.773125 4.6603125 7.65625 5.515625 C8.1382847 10.40170402 10.49697419 12.99437312 13.5 16.75 C14.53514701 18.0750899 15.56659744 19.40307857 16.59375 20.734375 C17.05458984 21.31413086 17.51542969 21.89388672 17.99023438 22.49121094 C19 24 19 24 19 26 C19.99 26.33 20.98 26.66 22 27 C22.6875 29.0625 22.6875 29.0625 23 31 C17.49572899 28.49432439 14.83615722 24.06459348 11.5 19.25 C10.94441406 18.46367187 10.38882813 17.67734375 9.81640625 16.8671875 C8.72213298 15.3171816 7.6334436 13.76321628 6.55078125 12.20507812 C5.5472341 10.77812002 4.52481093 9.36417504 3.48046875 7.96679688 C0 3.30492958 0 3.30492958 0 0 Z " fill="#303030" transform="translate(99,117)"/>
<path d="M0 0 C0.495 0.99 0.495 0.99 1 2 C-1.79850407 7.23484879 -4.01831671 11.17503809 -9.875 13.0625 C-11.24216332 13.4076749 -12.6155718 13.73234388 -14 14 C-14 14.66 -14 15.32 -14 16 C-21.10249755 18.13608949 -29.64429632 18.52879439 -36.4296875 15.4375 C-39.07077956 13.73622511 -41.56565884 11.98391213 -44 10 C-43.34 9.67 -42.68 9.34 -42 9 C-39.7578125 9.9609375 -39.7578125 9.9609375 -37.125 11.375 C-31.54760021 14.35516287 -27.39060075 15.51537103 -21 15 C-17.57207731 13.86985674 -14.30082934 12.45406309 -11 11 C-10.09507812 10.68804687 -9.19015625 10.37609375 -8.2578125 10.0546875 C-7.51273438 9.70664062 -6.76765625 9.35859375 -6 9 C-5.67 8.01 -5.34 7.02 -5 6 C-4.02149805 4.97895449 -3.02019573 3.9793879 -2 3 C-1.34 2.01 -0.68 1.02 0 0 Z " fill="#7A7275" transform="translate(150,45)"/>
<path d="M0 0 C0.66 0.33 1.32 0.66 2 1 C1.79632813 1.73347656 1.59265625 2.46695312 1.3828125 3.22265625 C0.93908447 6.44194837 1.43772992 7.57782815 2.875 10.4375 C5.6597877 16.78489542 5.80253567 23.14798781 6 30 C3.03090402 26.72698081 2.65645206 24.61934238 2.8125 20.25 C2.83957031 19.26515625 2.86664063 18.2803125 2.89453125 17.265625 C2.92933594 16.51796875 2.96414062 15.7703125 3 15 C2.34 15 1.68 15 1 15 C0.01 12.69 -0.98 10.38 -2 8 C-4.16874252 8.50603992 -5.99967627 8.99983813 -8 10 C-7.44449305 6.40094092 -6.25112752 5.00090201 -3.4375 2.75 C-2.79683594 2.22921875 -2.15617187 1.7084375 -1.49609375 1.171875 C-1.00238281 0.78515625 -0.50867187 0.3984375 0 0 Z " fill="#36322F" transform="translate(59,18)"/>
<path d="M0 0 C1.75 1.5234375 1.75 1.5234375 3 3 C2.30132812 2.90460938 1.60265625 2.80921875 0.8828125 2.7109375 C-0.02726562 2.60007813 -0.93734375 2.48921875 -1.875 2.375 C-2.77992187 2.25898438 -3.68484375 2.14296875 -4.6171875 2.0234375 C-5.40351563 2.01570312 -6.18984375 2.00796875 -7 2 C-7.66 2.66 -8.32 3.32 -9 4 C-8.90888062 6.53951544 -8.90888062 6.53951544 -8 9 C-4.26744552 11.48836965 -2.41559065 11.54226552 2 11 C4.47208796 8.64167228 4.47208796 8.64167228 6 6 C5.74233354 9.77910801 5.37804992 11.57874438 2.8125 14.4375 C0 16 0 16 -3 16.0625 C-6.84163975 14.70191925 -8.57622276 13.27922803 -11 10 C-11.48259887 6.50115821 -11.63513623 4.23057644 -10 1.0625 C-6.85042868 -0.61070976 -3.4773285 -0.71509578 0 0 Z " fill="#636E75" transform="translate(36,136)"/>
<path d="M0 0 C4.65145228 1.46887967 4.65145228 1.46887967 6.3125 4 C7 6 7 6 7 8 C8.70795908 10.15850691 10.44238783 12.24041531 12.25 14.3125 C22 25.61072835 22 25.61072835 22 28 C17.81968898 26.43360711 15.4400899 23.3506043 12.6875 20 C12.20692139 19.4220166 11.72634277 18.8440332 11.23120117 18.24853516 C0 4.59654083 0 4.59654083 0 0 Z " fill="#B3C6D9" transform="translate(63,55)"/>
<path d="M0 0 C1.32 0.66 2.64 1.32 4 2 C0.37 7.28 -3.26 12.56 -7 18 C-7.99 17.67 -8.98 17.34 -10 17 C-5.98165914 3.91901806 -5.98165914 3.91901806 0 0 Z " fill="#463738" transform="translate(74,105)"/>
<path d="M0 0 C0.99 0.33 1.98 0.66 3 1 C3.6875 3.22265625 3.6875 3.22265625 4 6 C0.77354641 12.10266715 -4.67024146 16.75794729 -10 21 C-8.34824096 17.28755129 -6.21937896 15.15001404 -3.2421875 12.46484375 C-1.67661879 10.93875825 -1.67661879 10.93875825 -2 8 C-2.99 8.66 -3.98 9.32 -5 10 C-5.66 9.34 -6.32 8.68 -7 8 C-4.69 5.36 -2.38 2.72 0 0 Z " fill="#98A5B1" transform="translate(72,82)"/>
<path d="M0 0 C1.98 0.99 3.96 1.98 6 3 C5.59102482 7.8990005 3.60793633 9.6995983 -0.0625 12.8125 C-0.98160156 13.60269531 -1.90070313 14.39289063 -2.84765625 15.20703125 C-3.91306641 16.09455078 -3.91306641 16.09455078 -5 17 C-5.66 15.68 -6.32 14.36 -7 13 C-2.25 7.125 -2.25 7.125 0 6 C0 4.02 0 2.04 0 0 Z " fill="#473A3B" transform="translate(109,59)"/>
<path d="M0 0 C3.45655783 1.17631549 5.38386376 2.25880327 7.125 5.625 C6.39023438 5.21121094 6.39023438 5.21121094 5.640625 4.7890625 C2.15418597 3.17577239 -1.45397107 2.1155777 -5.125 1 C-5.87007812 0.77054688 -6.61515625 0.54109375 -7.3828125 0.3046875 C-9.2125871 -0.25832007 -11.04366703 -0.81708228 -12.875 -1.375 C-14.08769571 0.60690253 -14.08769571 0.60690253 -13.64453125 2.98046875 C-13.875 5.625 -13.875 5.625 -15.88671875 7.86328125 C-16.76972656 8.54777344 -17.65273438 9.23226562 -18.5625 9.9375 C-19.43261719 10.63488281 -20.30273438 11.33226563 -21.19921875 12.05078125 C-24.08978264 13.75136118 -25.58765395 13.97446562 -28.875 13.625 C-28.235625 13.521875 -27.59625 13.41875 -26.9375 13.3125 C-25.9165625 12.9721875 -25.9165625 12.9721875 -24.875 12.625 C-24.545 11.635 -24.215 10.645 -23.875 9.625 C-22.72 9.068125 -21.565 8.51125 -20.375 7.9375 C-18.43069312 7.00929004 -18.43069312 7.00929004 -16.875 5.625 C-16.04035855 2.90311196 -16.01639718 0.50007606 -15.875 -2.375 C-11.41767935 -4.60366033 -4.57336065 -1.36227764 0 0 Z " fill="#121314" transform="translate(46.875,53.375)"/>
<path d="M0 0 C0.66 0.66 1.32 1.32 2 2 C1.9375 4.375 1.9375 4.375 1 7 C-0.63604196 8.37073786 -2.30678061 9.70055256 -4 11 C-5.34270821 12.99371825 -6.67653494 14.9934562 -8 17 C-10.25023097 19.17764287 -11.40211984 19.91031798 -14.5 20.375 C-17.43206287 19.93519057 -18.80807418 18.94837851 -21 17 C-21.33 17.66 -21.66 18.32 -22 19 C-22.33 18.01 -22.66 17.02 -23 16 C-22.39414063 16.10441406 -21.78828125 16.20882812 -21.1640625 16.31640625 C-16.78908549 16.74044248 -14.00153582 16.63210535 -10.21484375 14.2421875 C-5.32735631 9.99532802 -1.85903003 6.24102938 0 0 Z " fill="#5E5053" transform="translate(108,59)"/>
<path d="M0 0 C2.86724686 0.57344937 3.8614515 0.8614515 6 3 C6.265625 5.09375 6.265625 5.09375 6.25 7.5 C6.25515625 8.2940625 6.2603125 9.088125 6.265625 9.90625 C6 12 6 12 4 14 C3.01 14 2.02 14 1 14 C-1.48063781 4.58997722 -1.48063781 4.58997722 0 0 Z " fill="#C4B8A9" transform="translate(53,28)"/>
<path d="M0 0 C2 1 2 1 3 3 C2.51273438 3.23332031 2.02546875 3.46664063 1.5234375 3.70703125 C-4.67765192 6.89777362 -9.93144623 10.93702152 -15.30126953 15.34106445 C-19.80255445 19 -19.80255445 19 -22 19 C-20.62502319 15.81416232 -19.13884319 14.00540304 -16.4453125 11.8359375 C-15.74792969 11.27132813 -15.05054688 10.70671875 -14.33203125 10.125 C-13.60371094 9.5475 -12.87539063 8.97 -12.125 8.375 C-11.40441406 7.78976563 -10.68382812 7.20453125 -9.94140625 6.6015625 C-3.43528165 1.37749192 -3.43528165 1.37749192 0 0 Z " fill="#1D1F20" transform="translate(44,5)"/>
<path d="M0 0 C1.32 0.33 2.64 0.66 4 1 C2.41467191 5.55564061 0.00996919 9.31475769 -2.625 13.3125 C-3.04523437 13.95767578 -3.46546875 14.60285156 -3.8984375 15.26757812 C-4.92838241 16.84760724 -5.96365628 18.42416047 -7 20 C-7.95157435 16.56416285 -8.09604275 14.4567502 -7 11 C-5.69864875 9.30824337 -4.36244796 7.64295195 -3 6 C-1.95548562 4.02288349 -0.94301862 2.02749004 0 0 Z " fill="#413637" transform="translate(62,122)"/>
<path d="M0 0 C0.66 0 1.32 0 2 0 C2.16682272 4.92127034 2.24828052 8.50343896 0 13 C-4.875 12.125 -4.875 12.125 -6 11 C-6.04063832 9.33382885 -6.042721 7.66611905 -6 6 C-5.01 6 -4.02 6 -3 6 C-2.690625 5.195625 -2.38125 4.39125 -2.0625 3.5625 C-1 1 -1 1 0 0 Z " fill="#D1DCE2" transform="translate(26,30)"/>
<path d="M0 0 C9.67768056 -0.86066329 9.67768056 -0.86066329 13.625 2.375 C16 5 16 5 16 7 C14.01926635 6.719172 12.04041552 6.42503386 10.0625 6.125 C8.40927734 5.88136719 8.40927734 5.88136719 6.72265625 5.6328125 C5.82417969 5.42398438 4.92570312 5.21515625 4 5 C3.67 4.34 3.34 3.68 3 3 C1.68 3 0.36 3 -1 3 C-0.67 2.01 -0.34 1.02 0 0 Z " fill="#373638" transform="translate(29,46)"/>
<path d="M0 0 C4.5444504 4.26902917 8.2299306 9.04556827 12 14 C14.78556439 17.60484804 17.73201506 20.82279242 21 24 C20.01 24.33 19.02 24.66 18 25 C18 24.34 18 23.68 18 23 C17.34 23 16.68 23 16 23 C14.31183067 21.35511706 12.64646685 19.68662458 11 18 C10.01 17.34 9.02 16.68 8 16 C6.44511995 12.71083066 5.1499746 9.44992381 4 6 C3.34 6 2.68 6 2 6 C0 3 0 3 0 0 Z " fill="#635153" transform="translate(62,61)"/>
<path d="M0 0 C0.33 0 0.66 0 1 0 C1.01417969 0.845625 1.02835938 1.69125 1.04296875 2.5625 C1.36213711 10.15353119 2.33691227 14.99784992 7 21 C7.33 21.66 7.66 22.32 8 23 C5.33333333 21.66666667 2.66666667 20.33333333 0 19 C-0.226875 19.886875 -0.45375 20.77375 -0.6875 21.6875 C-2.17188513 25.43380532 -4.02403485 27.33729434 -7 30 C-6.03746516 27.40856006 -5.14926321 25.20212727 -3.5 22.96875 C-1.32564729 18.66534359 -1.17921553 14.44807316 -0.8125 9.6875 C-0.73064453 8.75615234 -0.64878906 7.82480469 -0.56445312 6.86523438 C-0.3650129 4.57753768 -0.17724178 2.28950552 0 0 Z " fill="#2E3132" transform="translate(96,30)"/>
<path d="M0 0 C1.98 1.32 3.96 2.64 6 4 C5.67 5.32 5.34 6.64 5 8 C4.71125 7.360625 4.4225 6.72125 4.125 6.0625 C3.17176549 3.84793921 3.17176549 3.84793921 1 3 C0.73445312 3.58265625 0.46890625 4.1653125 0.1953125 4.765625 C-1.03302996 7.06174228 -2.40314939 8.80356018 -4.125 10.75 C-4.93324219 11.67039062 -4.93324219 11.67039062 -5.7578125 12.609375 C-6.16773438 13.06828125 -6.57765625 13.5271875 -7 14 C-7.66 13.67 -8.32 13.34 -9 13 C-8.51286902 8.58489226 -7.14946803 6.69553355 -3.9375 3.6875 C-3.20402344 2.99011719 -2.47054687 2.29273438 -1.71484375 1.57421875 C-1.14894531 1.05472656 -0.58304688 0.53523438 0 0 Z " fill="#2C2C2B" transform="translate(151,20)"/>
<path d="M0 0 C0.99 0.33 1.98 0.66 3 1 C2.45730469 1.42410156 1.91460937 1.84820312 1.35546875 2.28515625 C-4.30618409 6.92669146 -7.44468738 10.57971153 -8.390625 18.109375 C-8.65499613 21.07311445 -8.85848166 24.02811495 -9 27 C-9.66 27 -10.32 27 -11 27 C-11.63263689 18.76400496 -11.93650627 12.45629094 -6.65625 5.78125 C-4.56406253 3.53116159 -2.65225439 1.57701612 0 0 Z " fill="#BCD3E1" transform="translate(108,14)"/>
<path d="M0 0 C0.2475 0.53625 0.495 1.0725 0.75 1.625 C3.87926881 7.57061073 6.99438852 12.56634797 13.54296875 14.91015625 C16.01778969 15.66063087 18.49507047 16.35795981 21 17 C21 17.33 21 17.66 21 18 C14.17356603 18.65013657 10.42133111 17.82567548 4.88671875 13.7109375 C1.2338898 10.39843423 0.08221292 7.47983263 -0.1875 2.625 C-0.125625 1.75875 -0.06375 0.8925 0 0 Z " fill="#9EB6D1" transform="translate(115,27)"/>
<path d="M0 0 C1.28197266 -0.03867187 1.28197266 -0.03867187 2.58984375 -0.078125 C5.54059087 0.31344334 6.7658168 1.4309883 9.0625 3.25 C13.53695178 2.95170321 17.7808445 1.53449665 22.0625 0.25 C21.7325 1.24 21.4025 2.23 21.0625 3.25 C16.67988564 5.23261126 12.83504524 5.60352187 8.0625 5.25 C7.44503906 4.92386719 6.82757813 4.59773438 6.19140625 4.26171875 C2.0789048 2.30733733 -2.50787131 2.57507137 -6.9375 3.25 C-9.2972567 4.69711576 -10.28363065 5.9688009 -11.9375 8.25 C-11.3751049 4.98810844 -10.5234495 3.33865152 -7.9375 1.25 C-5.04829306 0.28693102 -3.01502119 0.0544064 0 0 Z " fill="#8F8A8E" transform="translate(36.9375,39.75)"/>
<path d="M0 0 C0.33 0.66 0.66 1.32 1 2 C-0.25 4.3125 -0.25 4.3125 -2 7 C-2.45375 7.886875 -2.9075 8.77375 -3.375 9.6875 C-5.42925097 12.61085715 -6.5292394 13.17003551 -10 14 C-16.10022308 14.64212875 -20.6185867 13.96526856 -26 11 C-26.66 10.01 -27.32 9.02 -28 8 C-22.34636872 9.79888268 -22.34636872 9.79888268 -20.0625 11.125 C-16.12556909 12.79521311 -12.39963851 12.51206287 -8.4375 11.0625 C-4.77691783 7.96508432 -2.48183041 4.068155 0 0 Z " fill="#6E5B60" transform="translate(47,141)"/>
<path d="M0 0 C1.77007714 -0.08114106 3.54122098 -0.13925505 5.3125 -0.1875 C6.29863281 -0.22230469 7.28476562 -0.25710937 8.30078125 -0.29296875 C11 0 11 0 12.85546875 1.38671875 C14 3 14 3 14 5 C16.64 4.67 19.28 4.34 22 4 C21.67 4.66 21.34 5.32 21 6 C18.0230503 6.85745813 15.0918927 7.15377086 12 7 C10.62437146 5.71034824 9.29233607 4.37310707 8 3 C5.01478914 2.34241859 2.04993253 2.130339 -1 2 C-0.67 1.34 -0.34 0.68 0 0 Z " fill="#79656B" transform="translate(30,42)"/>
<path d="M0 0 C0.9435441 2.53899138 1.16906025 3.60909275 0.07421875 6.140625 C-0.61220703 7.18476562 -0.61220703 7.18476562 -1.3125 8.25 C-1.76238281 8.95640625 -2.21226563 9.6628125 -2.67578125 10.390625 C-3.11277344 10.92171875 -3.54976563 11.4528125 -4 12 C-4.66 12 -5.32 12 -6 12 C-6.33 12.99 -6.66 13.98 -7 15 C-7.95892499 12.41090253 -8.0552238 11.18407932 -7.25 8.5 C-6.01982472 6.03964944 -4.87027254 4.01989434 -3 2 C-2.01 2 -1.02 2 0 2 C0 1.34 0 0.68 0 0 Z " fill="#CADBE3" transform="translate(96,53)"/>
<path d="M0 0 C0 0.66 0 1.32 0 2 C0.99 2 1.98 2 3 2 C2.91253716 3.43861294 2.80434652 4.87597508 2.6875 6.3125 C2.62949219 7.11300781 2.57148438 7.91351563 2.51171875 8.73828125 C2 11 2 11 -1 14 C-0.67 10.37 -0.34 6.74 0 3 C-2.87420123 5.71604715 -2.87420123 5.71604715 -5 9 C-5.99 9 -6.98 9 -8 9 C-8.33 10.32 -8.66 11.64 -9 13 C-9 11.35 -9 9.7 -9 8 C-8.01 8 -7.02 8 -6 8 C-5.896875 7.236875 -5.79375 6.47375 -5.6875 5.6875 C-4.83195622 2.34310158 -3.70341243 0 0 0 Z " fill="#ACB5BD" transform="translate(28,27)"/>
<path d="M0 0 C2 3 2 3 1.9375 5.75 C0.42402051 10.9967289 -2.27037804 14.65005115 -6.5625 18 C-9.26576699 19.10903261 -10.33294707 19.08657712 -13 18 C-12.67 17.34 -12.34 16.68 -12 16 C-11.2575 15.938125 -10.515 15.87625 -9.75 15.8125 C-6.02634757 14.71232996 -5.09632967 12.70643598 -3.11328125 9.49609375 C-2.74589844 9.00238281 -2.37851563 8.50867187 -2 8 C-1.34 8 -0.68 8 0 8 C0 5.36 0 2.72 0 0 Z " fill="#96A4B1" transform="translate(99,52)"/>
<path d="M0 0 C0 3.81328762 -0.00216079 6.84250652 -2.5625 9.8125 C-3.036875 10.204375 -3.51125 10.59625 -4 11 C-7.99500618 9.6302836 -10.80009492 7.74277578 -14 5 C-13.67 3.68 -13.34 2.36 -13 1 C-11.02 3.31 -9.04 5.62 -7 8 C-4.39391727 5.4837822 -2.10618315 2.94865641 0 0 Z " fill="#404245" transform="translate(88,60)"/>
<path d="M0 0 C4.875 4.625 4.875 4.625 6 8 C5.236875 8.598125 4.47375 9.19625 3.6875 9.8125 C1.6516425 11.46959332 -0.1978279 13.10297674 -2 15 C-2.75 13.4375 -2.75 13.4375 -3 11 C-2.05688673 9.15235536 -0.96220637 7.43981494 0.140625 5.68359375 C1.21780865 3.94966071 1.21780865 3.94966071 0.75 1.5625 C0.5025 1.046875 0.255 0.53125 0 0 Z " fill="#33302F" transform="translate(80,91)"/>
<path d="M0 0 C1.32 0 2.64 0 4 0 C4.33 1.98 4.66 3.96 5 6 C4.01 5.67 3.02 5.34 2 5 C2 5.66 2 6.32 2 7 C0.68 7 -0.64 7 -2 7 C-2.33 6.34 -2.66 5.68 -3 5 C-5.31 5 -7.62 5 -10 5 C-10 4.67 -10 4.34 -10 4 C-9.36191406 3.79503906 -8.72382812 3.59007812 -8.06640625 3.37890625 C-7.24011719 3.10949219 -6.41382813 2.84007812 -5.5625 2.5625 C-4.73878906 2.29566406 -3.91507813 2.02882812 -3.06640625 1.75390625 C-1.03780412 1.17844506 -1.03780412 1.17844506 0 0 Z " fill="#4A3F41" transform="translate(53,45)"/>
<path d="M0 0 C5.12583611 -0.10251672 9.94997778 -0.03590199 15 1 C15 1.66 15 2.32 15 3 C14.154375 3.04898437 13.30875 3.09796875 12.4375 3.1484375 C6.05290815 3.56924014 0.14207405 4.19350763 -6 6 C-5.67 5.34 -5.34 4.68 -5 4 C-1.9375 3.375 -1.9375 3.375 1 3 C0.67 2.01 0.34 1.02 0 0 Z " fill="#AAC3DE" transform="translate(75,6)"/>
<path d="M0 0 C0.66 0.66 1.32 1.32 2 2 C-0.31 3.32 -2.62 4.64 -5 6 C-5 7.65 -5 9.3 -5 11 C-9.2742558 9.4169423 -11.26531794 6.49431596 -14 3 C-13.11248047 3.05220703 -13.11248047 3.05220703 -12.20703125 3.10546875 C-7.2398924 3.27563175 -4.09271311 3.16855209 0 0 Z " fill="#2F2E30" transform="translate(23,55)"/>
<path d="M0 0 C1.32 0.66 2.64 1.32 4 2 C4 2.66 4 3.32 4 4 C0.03450872 7.12432647 -3.04312447 7.37410381 -8 7 C-8.66 6.67 -9.32 6.34 -10 6 C-9.67 5.34 -9.34 4.68 -9 4 C-8.2575 4.0825 -7.515 4.165 -6.75 4.25 C-3.21842973 3.92894816 -2.23369636 2.64734383 0 0 Z " fill="#584144" transform="translate(19,52)"/>
<path d="M0 0 C-4.75 4.875 -4.75 4.875 -7 6 C-6.34 6.66 -5.68 7.32 -5 8 C-6.65 7.67 -8.3 7.34 -10 7 C-9.67226629 3.96846314 -9.35865103 2.38426897 -7.25 0.125 C-4.40525065 -1.29737468 -2.98383376 -0.91172698 0 0 Z " fill="#454747" transform="translate(27,58)"/>
<path d="M0 0 C0.99 0.33 1.98 0.66 3 1 C2.54109375 1.38671875 2.0821875 1.7734375 1.609375 2.171875 C0.68898438 2.95304688 0.68898438 2.95304688 -0.25 3.75 C-0.89324219 4.29527344 -1.53648438 4.84054688 -2.19921875 5.40234375 C-4.11925443 7.0433077 -4.11925443 7.0433077 -6.0625 9.3125 C-8.59724055 11.52017726 -10.70746534 11.70067867 -14 12 C-10.98085723 8.78607382 -7.79659911 5.91028215 -4.375 3.125 C-3.24191406 2.20074219 -3.24191406 2.20074219 -2.0859375 1.2578125 C-1.39757813 0.84273437 -0.70921875 0.42765625 0 0 Z " fill="#DBE4E8" transform="translate(37,13)"/>
<path d="M0 0 C0.66 0.66 1.32 1.32 2 2 C2.66 1.34 3.32 0.68 4 0 C6.125 0.375 6.125 0.375 8 1 C8.33 2.65 8.66 4.3 9 6 C8.01 5.34 7.02 4.68 6 4 C5.01 4 4.02 4 3 4 C2.34 5.98 1.68 7.96 1 10 C-1 8 -1 8 -1.1875 5 C-1 2 -1 2 0 0 Z " fill="#908F8F" transform="translate(50,25)"/>
<path d="M0 0 C0.99 0.33 1.98 0.66 3 1 C2.54109375 1.43570313 2.0821875 1.87140625 1.609375 2.3203125 C-2.16354586 5.9822651 -5.2623152 9.51019692 -8 14 C-8.671875 12.2578125 -8.671875 12.2578125 -9 10 C-7.890625 7.9296875 -7.890625 7.9296875 -6.25 5.875 C-5.71890625 5.19179687 -5.1878125 4.50859375 -4.640625 3.8046875 C-3 2 -3 2 0 0 Z " fill="#E8EFF1" transform="translate(28,127)"/>
<path d="M0 0 C0.66 1.32 1.32 2.64 2 4 C-1.87155064 9.92831192 -6.53421856 15.76710928 -13 19 C-11.01843758 14.33686669 -7.54360419 11.15862323 -4.09375 7.53515625 C-2.04992089 5.06044525 -0.99641443 3.02715036 0 0 Z " fill="#7C777C" transform="translate(77,88)"/>
<path d="M0 0 C1.75 1.5234375 1.75 1.5234375 3 3 C2.30132812 2.90460938 1.60265625 2.80921875 0.8828125 2.7109375 C-0.02726562 2.60007813 -0.93734375 2.48921875 -1.875 2.375 C-2.77992187 2.25898438 -3.68484375 2.14296875 -4.6171875 2.0234375 C-5.40351563 2.01570312 -6.18984375 2.00796875 -7 2 C-7.66 2.66 -8.32 3.32 -9 4 C-8.77256695 6.95662966 -8.38764062 8.55033688 -6.4375 10.8125 C-5.963125 11.204375 -5.48875 11.59625 -5 12 C-6.32 12.33 -7.64 12.66 -9 13 C-11.46324069 9.30513897 -11.38991688 7.36706908 -11 3 C-8.90258304 -1.06374535 -4.06224211 -0.83538043 0 0 Z " fill="#393635" transform="translate(36,136)"/>
<path d="M0 0 C-2.12232979 1.17176518 -4.24757791 2.33754785 -6.375 3.5 C-6.97828125 3.83386719 -7.5815625 4.16773438 -8.203125 4.51171875 C-12.7734375 7 -12.7734375 7 -15 7 C-15 7.66 -15 8.32 -15 9 C-16.32 8.67 -17.64 8.34 -19 8 C-18.34 8 -17.68 8 -17 8 C-16.67 7.01 -16.34 6.02 -16 5 C-14.3523962 4.28752268 -12.68236471 3.62599617 -11 3 C-10.319375 2.484375 -9.63875 1.96875 -8.9375 1.4375 C-5.66907555 -0.98746008 -3.86175206 -1.28725069 0 0 Z " fill="#A9BBCC" transform="translate(52,11)"/>
<path d="M0 0 C0.6875 1.6875 0.6875 1.6875 1 4 C-0.90485812 8.19068787 -3.74902976 10.82058434 -7.1875 13.8125 C-8.53908203 14.99779297 -8.53908203 14.99779297 -9.91796875 16.20703125 C-10.60503906 16.79871094 -11.29210937 17.39039062 -12 18 C-12 15 -12 15 -10.64453125 13.45703125 C-10.03996094 12.91433594 -9.43539062 12.37164062 -8.8125 11.8125 C-5.0857364 8.26752975 -2.51525326 4.46254611 0 0 Z " fill="#868A92" transform="translate(76,86)"/>
<path d="M0 0 C1.65 1.65 3.3 3.3 5 5 C4.2575 4.7525 3.515 4.505 2.75 4.25 C1.8425 4.1675 0.935 4.085 0 4 C-1.35432675 5.31200404 -2.68733482 6.64631404 -4 8 C-6.75 8.25 -6.75 8.25 -9 8 C-9.33 7.34 -9.66 6.68 -10 6 C-9.278125 5.7525 -8.55625 5.505 -7.8125 5.25 C-4.75286734 3.89016326 -2.5326262 2.17082246 0 0 Z " fill="#9497A0" transform="translate(19,49)"/>
<path d="M0 0 C2 1 2 1 2.8125 2.75 C3.08869915 6.06438979 2.0192132 7.39456361 0 10 C-3.1875 12.3125 -3.1875 12.3125 -6 14 C-4.87811159 10.91480689 -3.5383537 8.13194351 -1.875 5.3125 C0.16419941 2.34430563 0.16419941 2.34430563 0 0 Z " fill="#66595C" transform="translate(78,89)"/>
<path d="M0 0 C-6.26640203 5.8486419 -11.55989915 6.56657237 -19.765625 6.3046875 C-21.51154673 6.22487394 -23.25607869 6.11554816 -25 6 C-25 5.67 -25 5.34 -25 5 C-16.585 4.505 -16.585 4.505 -8 4 C-8 3.34 -8 2.68 -8 2 C-3.61016949 -1.20338983 -3.61016949 -1.20338983 0 0 Z " fill="#443A3A" transform="translate(144,57)"/>
<path d="M0 0 C3.4375 1.3125 3.4375 1.3125 7 3 C7.33 3.99 7.66 4.98 8 6 C8.66 6 9.32 6 10 6 C10.66 7.32 11.32 8.64 12 10 C8.07290865 10 7.1810287 8.72099538 4.3125 6.125 C3.50425781 5.40570313 2.69601563 4.68640625 1.86328125 3.9453125 C0 2 0 2 0 0 Z " fill="#2B2C2D" transform="translate(56,61)"/>
<path d="M0 0 C1.31291016 -0.02513672 1.31291016 -0.02513672 2.65234375 -0.05078125 C5.0625 0.3125 5.0625 0.3125 8.0625 3.3125 C4.1025 3.3125 0.1425 3.3125 -3.9375 3.3125 C-4.2675 3.9725 -4.5975 4.6325 -4.9375 5.3125 C-3.6175 5.6425 -2.2975 5.9725 -0.9375 6.3125 C-2.5875 6.3125 -4.2375 6.3125 -5.9375 6.3125 C-6.5625 4.4375 -6.5625 4.4375 -6.9375 2.3125 C-4.42737037 -0.19762963 -3.46944763 0.01528391 0 0 Z " fill="#5E474A" transform="translate(32.9375,43.6875)"/>
<path d="M0 0 C0.66 0 1.32 0 2 0 C1.875 2.75 1.875 2.75 1 6 C-2.0625 8.375 -2.0625 8.375 -5 10 C-5.66 9.34 -6.32 8.68 -7 8 C-5.88200014 6.66079162 -4.75538103 5.32877444 -3.625 4 C-2.68527344 2.88625 -2.68527344 2.88625 -1.7265625 1.75 C-1.15679687 1.1725 -0.58703125 0.595 0 0 Z " fill="#E2EAEC" transform="translate(72,82)"/>
<path d="M0 0 C0.66 0 1.32 0 2 0 C3.0257259 4.41062136 3.03684712 6.92630576 1 11 C0.01 11 -0.98 11 -2 11 C-1.85957123 9.35369672 -1.71250671 7.70795821 -1.5625 6.0625 C-1.48128906 5.14597656 -1.40007813 4.22945312 -1.31640625 3.28515625 C-1 1 -1 1 0 0 Z " fill="#363A3D" transform="translate(21,24)"/>
<path d="M0 0 C0.66 0.33 1.32 0.66 2 1 C0.75023244 4.65316671 0.32901247 5.78065836 -3 8 C-3.33 8.99 -3.66 9.98 -4 11 C-5.31647119 11.69937532 -6.65022151 12.36729133 -8 13 C-8.33 13.66 -8.66 14.32 -9 15 C-9.66 14.67 -10.32 14.34 -11 14 C-9.71937515 12.2925002 -8.38232443 10.62626404 -7 9 C-6.34 9 -5.68 9 -5 9 C-4.67 7.68 -4.34 6.36 -4 5 C-3.34 5 -2.68 5 -2 5 C-1.34 3.35 -0.68 1.7 0 0 Z " fill="#513D40" transform="translate(53,137)"/>
<path d="M0 0 C1.546875 1.0209375 1.546875 1.0209375 3.125 2.0625 C5.92369606 3.66013621 6.90206303 4.0018834 10.25 3.9375 C12.99335704 3.00226465 14.23500989 2.25526514 16 0 C16.66 0.33 17.32 0.66 18 1 C14.24248497 5.69689379 14.24248497 5.69689379 11.0625 6.47265625 C7.20697065 6.64060545 5.33903537 6.2118971 2 4.125 C0 2 0 2 0 0 Z " fill="#9CA8B4" transform="translate(25,147)"/>
<path d="M0 0 C4.59817352 1.45205479 4.59817352 1.45205479 6.375 3.875 C7.09806909 6.3334349 6.85178626 7.61499846 6 10 C2.46413986 6.82679218 0.41421969 4.83256305 0 0 Z " fill="#B7C3CF" transform="translate(63,55)"/>
<path d="M0 0 C-1.41573821 3.39187279 -3.04230966 5.09697541 -6 7.25 C-7.051875 8.03117187 -7.051875 8.03117187 -8.125 8.828125 C-10 10 -10 10 -12 10 C-10.58426179 6.60812721 -8.95769034 4.90302459 -6 2.75 C-5.29875 2.22921875 -4.5975 1.7084375 -3.875 1.171875 C-2 0 -2 0 0 0 Z " fill="#151718" transform="translate(34,14)"/>
<path d="M0 0 C0 4.00278065 -1.52449993 5.48797589 -3.875 8.6875 C-4.59429687 9.68136719 -5.31359375 10.67523438 -6.0546875 11.69921875 C-7.01761719 12.83810547 -7.01761719 12.83810547 -8 14 C-8.66 14 -9.32 14 -10 14 C-8.6113673 11.02245105 -6.98738657 8.48841335 -5 5.875 C-4.484375 5.19179687 -3.96875 4.50859375 -3.4375 3.8046875 C-2 2 -2 2 0 0 Z " fill="#6F6063" transform="translate(71,102)"/>
<path d="M0 0 C2 1.375 2 1.375 4 3 C4 3.66 4 4.32 4 5 C-1.00873617 9.89225393 -1.00873617 9.89225393 -4.875 10.3125 C-5.926875 10.1578125 -5.926875 10.1578125 -7 10 C-7.33 9.34 -7.66 8.68 -8 8 C-5.69 7.34 -3.38 6.68 -1 6 C-0.4465236 3.92446352 0 2.15634036 0 0 Z " fill="#B9D2E4" transform="translate(15,45)"/>
<path d="M0 0 C0.66 0.33 1.32 0.66 2 1 C0.95833333 2.69270833 -0.08333333 4.38541667 -1.125 6.078125 C-2.27624023 8.25479385 -2.27624023 8.25479385 -2 12 C-3.65 12 -5.3 12 -7 12 C-6.690625 11.401875 -6.38125 10.80375 -6.0625 10.1875 C-4.89790296 7.91043228 -4.89790296 7.91043228 -4 5 C-3.01 4.34 -2.02 3.68 -1 3 C-0.67 2.01 -0.34 1.02 0 0 Z " fill="#574042" transform="translate(80,94)"/>
<path d="M0 0 C0.33 0 0.66 0 1 0 C0.54177532 3.46941546 0.10868317 6.67395049 -1 10 C-1.22325814 12.05893621 -1.40705759 14.12233653 -1.5625 16.1875 C-1.64628906 17.27417969 -1.73007813 18.36085938 -1.81640625 19.48046875 C-1.87699219 20.31191406 -1.93757813 21.14335938 -2 22 C-2.33 22 -2.66 22 -3 22 C-3.30372936 13.99054432 -3.50848663 7.30934715 0 0 Z " fill="#070707" transform="translate(98,20)"/>
<path d="M0 0 C1.27208622 0.62244599 2.54261882 1.24806767 3.8125 1.875 C4.52019531 2.22304687 5.22789063 2.57109375 5.95703125 2.9296875 C8 4 8 4 11 6 C10.01 6.66 9.02 7.32 8 8 C7.67 8.66 7.34 9.32 7 10 C5.82739389 8.71372289 4.6620717 7.42080217 3.5 6.125 C2.8503125 5.40570313 2.200625 4.68640625 1.53125 3.9453125 C0 2 0 2 0 0 Z " fill="#677586" transform="translate(78,68)"/>
<path d="M0 0 C2.97 0.495 2.97 0.495 6 1 C6 2.98 6 4.96 6 7 C5.01 7.495 5.01 7.495 4 8 C4 7.01 4 6.02 4 5 C2.68 4.34 1.36 3.68 0 3 C0 2.01 0 1.02 0 0 Z " fill="#484540" transform="translate(25,52)"/>
<path d="M0 0 C2.26273207 3.55818936 2.07331744 6.12547951 1.625 10.25 C1.51414062 11.32765625 1.40328125 12.4053125 1.2890625 13.515625 C1.19367188 14.33546875 1.09828125 15.1553125 1 16 C0.34 16 -0.32 16 -1 16 C-1.02692484 13.70839681 -1.04636124 11.41670454 -1.0625 9.125 C-1.07410156 7.84882812 -1.08570312 6.57265625 -1.09765625 5.2578125 C-1 2 -1 2 0 0 Z " fill="#AEBBC4" transform="translate(98,25)"/>
<path d="M0 0 C0.66 0 1.32 0 2 0 C0.54955729 4.10958767 -1.51110752 7.43258745 -4 11 C-4.68707555 8.50935112 -5 6.62113708 -5 4 C-3.35 3.67 -1.7 3.34 0 3 C0 2.01 0 1.02 0 0 Z " fill="#332F2E" transform="translate(59,131)"/>
<path d="M0 0 C0.99 0.33 1.98 0.66 3 1 C1.68775452 4.93673644 0.08089673 7.22719294 -3 10 C-3.66 9.67 -4.32 9.34 -5 9 C-3.97448721 5.92346162 -3.19203004 5.19203004 -1 3 C-0.67 2.01 -0.34 1.02 0 0 Z " fill="#3A3535" transform="translate(69,113)"/>
<path d="M0 0 C5.28 0.33 10.56 0.66 16 1 C16 1.33 16 1.66 16 2 C10.65097076 2.59198743 5.39115154 3.14187241 0 3 C0 2.01 0 1.02 0 0 Z " fill="#18191A" transform="translate(116,62)"/>
<path d="M0 0 C4.8274799 1.41292095 8.7162359 3.42974154 13 6 C13 6.66 13 7.32 13 8 C7.73691968 6.58795406 4.2437012 4.31008693 0 1 C0 0.67 0 0.34 0 0 Z " fill="#73686D" transform="translate(106,54)"/>
<path d="M0 0 C0.99 0 1.98 0 3 0 C3.36923077 6.52307692 3.36923077 6.52307692 1.5 8.9375 C1.005 9.288125 0.51 9.63875 0 10 C0 8.68 0 7.36 0 6 C-0.66 6 -1.32 6 -2 6 C-1.34 4.02 -0.68 2.04 0 0 Z " fill="#B6C4CD" transform="translate(96,49)"/>
<path d="M0 0 C0.556875 0.268125 1.11375 0.53625 1.6875 0.8125 C-0.625 3.3125 -0.625 3.3125 -3.3125 5.8125 C-4.3025 5.8125 -5.2925 5.8125 -6.3125 5.8125 C-6.6425 7.1325 -6.9725 8.4525 -7.3125 9.8125 C-7.625 7.625 -7.625 7.625 -7.3125 4.8125 C-3.33459945 -0.27037293 -3.33459945 -0.27037293 0 0 Z " fill="#98AEBE" transform="translate(9.3125,37.1875)"/>
<path d="M0 0 C0 0.66 0 1.32 0 2 C-1.53125 3.2890625 -1.53125 3.2890625 -3.5 4.625 C-4.1496875 5.07101563 -4.799375 5.51703125 -5.46875 5.9765625 C-5.9740625 6.31429688 -6.479375 6.65203125 -7 7 C-7.66 6.67 -8.32 6.34 -9 6 C-8.75 4.125 -8.75 4.125 -8 2 C-5.06004981 -0.02755186 -3.72295997 0 0 0 Z " fill="#BAD5E6" transform="translate(47,9)"/>
<path d="M0 0 C1.485 0.99 1.485 0.99 3 2 C3 2.66 3 3.32 3 4 C3.66 4 4.32 4 5 4 C5.33 4.99 5.66 5.98 6 7 C4.68 7.33 3.36 7.66 2 8 C0.4375 5.6875 0.4375 5.6875 -1 3 C-0.67 2.01 -0.34 1.02 0 0 Z " fill="#3D3C3D" transform="translate(75,80)"/>
<path d="M0 0 C2.9297008 2.82506863 5.50174717 5.78796065 8 9 C7.67 9.66 7.34 10.32 7 11 C4.0625 9.4375 4.0625 9.4375 1 7 C0.125 3.25 0.125 3.25 0 0 Z " fill="#837C80" transform="translate(60,54)"/>
<path d="M0 0 C2.475 0.495 2.475 0.495 5 1 C5 3.31 5 5.62 5 8 C1.125 6.125 1.125 6.125 0 5 C-0.04063832 3.33382885 -0.042721 1.66611905 0 0 Z " fill="#A0B5CA" transform="translate(21,42)"/>
<path d="M0 0 C0.2475 0.53625 0.495 1.0725 0.75 1.625 C2.03434429 4.18225578 2.03434429 4.18225578 4.125 7.0625 C6 10 6 10 6 13 C3 12 3 12 1.3125 9.3125 C-0.03558623 5.91018714 -0.25833766 3.61672729 0 0 Z " fill="#A5AFB9" transform="translate(115,27)"/>
<path d="M0 0 C-1.15173355 2.46800047 -2.04783565 4.04783565 -4 6 C-6.125 5.625 -6.125 5.625 -8 5 C-3.375 0 -3.375 0 0 0 Z " fill="#F5FBFC" transform="translate(36,121)"/>
<path d="M0 0 C3.99870861 1.92530414 7.84296719 3.84296719 11 7 C10.01 7.99 9.02 8.98 8 10 C8 9.01 8 8.02 8 7 C7.4225 6.9175 6.845 6.835 6.25 6.75 C3.3460664 5.78202213 1.96259396 4.31305716 0 2 C0 1.34 0 0.68 0 0 Z " fill="#302F30" transform="translate(87,76)"/>
<path d="M0 0 C3.26008643 3.16952847 6.22237877 6.39937989 9 10 C5.55261628 8.46782946 2.74690118 6.59429556 0 4 C0 2.68 0 1.36 0 0 Z " fill="#91969F" transform="translate(75,74)"/>
<path d="M0 0 C0.33 0 0.66 0 1 0 C0.67 2.97 0.34 5.94 0 9 C-1.32 8.67 -2.64 8.34 -4 8 C-4 6.68 -4 5.36 -4 4 C-3.01 3.67 -2.02 3.34 -1 3 C-0.67 2.01 -0.34 1.02 0 0 Z " fill="#EBEFEF" transform="translate(25,33)"/>
<path d="M0 0 C-1.97420135 2.52259061 -2.96745642 2.9929808 -6.1875 3.6875 C-7.5796875 3.8421875 -7.5796875 3.8421875 -9 4 C-6.35287314 0.09233654 -4.86783735 -1.62261245 0 0 Z " fill="#827F86" transform="translate(37,131)"/>
<path d="M0 0 C0.66 0.66 1.32 1.32 2 2 C5.58343976 2.16677282 5.58343976 2.16677282 9 2 C8.01 3.485 8.01 3.485 7 5 C4.03 4.67 1.06 4.34 -2 4 C-1.34 2.68 -0.68 1.36 0 0 Z " fill="#7C8D9F" transform="translate(85,68)"/>
<path d="M0 0 C0 3.81328762 -0.00216079 6.84250652 -2.5625 9.8125 C-3.036875 10.204375 -3.51125 10.59625 -4 11 C-4.66 10.67 -5.32 10.34 -6 10 C-4.6302836 6.00499382 -2.74277578 3.19990508 0 0 Z " fill="#545D63" transform="translate(88,60)"/>
<path d="M0 0 C2.48862878 3.23521742 4.75421558 6.59260295 7 10 C4.33333333 8.66666667 1.66666667 7.33333333 -1 6 C-0.67 4.02 -0.34 2.04 0 0 Z " fill="#33363B" transform="translate(97,43)"/>
<path d="M0 0 C0.33 0 0.66 0 1 0 C1.33 4.29 1.66 8.58 2 13 C0.68 13 -0.64 13 -2 13 C-1.34 8.71 -0.68 4.42 0 0 Z " fill="#606160" transform="translate(61,33)"/>
<path d="M0 0 C-0.47202486 4.24822374 -2.96655518 6.19989709 -6 9 C-5.38983051 3.50847458 -5.38983051 3.50847458 -3.5625 1.125 C-2 0 -2 0 0 0 Z " fill="#1A1B1B" transform="translate(105,14)"/>
<path d="M0 0 C0.66 0.33 1.32 0.66 2 1 C0.68 3.64 -0.64 6.28 -2 9 C-2.66 9 -3.32 9 -4 9 C-4 6.69 -4 4.38 -4 2 C-2.125 0.9375 -2.125 0.9375 0 0 Z " fill="#9A979D" transform="translate(22,137)"/>
<path d="M0 0 C1.98 1.32 3.96 2.64 6 4 C5.67 5.32 5.34 6.64 5 8 C4.34 6.68 3.68 5.36 3 4 C2.236875 4.165 1.47375 4.33 0.6875 4.5 C-2 5 -2 5 -5 5 C-3.35 3.35 -1.7 1.7 0 0 Z " fill="#242320" transform="translate(151,20)"/>
<path d="M0 0 C2.5 2.3125 2.5 2.3125 5 5 C5 5.99 5 6.98 5 8 C4.01 7.34 3.02 6.68 2 6 C1.34 7.32 0.68 8.64 0 10 C0 7 0 7 0.5625 5 C1.22052993 2.80883384 1.22052993 2.80883384 0 0 Z " fill="#413839" transform="translate(80,91)"/>
<path d="M0 0 C-0.33 0.66 -0.66 1.32 -1 2 C-7.625 2.25 -7.625 2.25 -11 0 C-7.01803543 -1.05404945 -4.01804691 -0.84098656 0 0 Z " fill="#484F56" transform="translate(137,41)"/>
<path d="M0 0 C0.99 0.66 1.98 1.32 3 2 C2 4 2 4 -0.06640625 4.8515625 C-1.30197266 5.23441406 -1.30197266 5.23441406 -2.5625 5.625 C-3.38878906 5.88539062 -4.21507812 6.14578125 -5.06640625 6.4140625 C-5.70449219 6.60742188 -6.34257813 6.80078125 -7 7 C-7 6.34 -7 5.68 -7 5 C-5.35666496 3.96210419 -3.68756133 2.96432076 -2 2 C-1.34 1.34 -0.68 0.68 0 0 Z " fill="#CAE5F6" transform="translate(10,38)"/>
<path d="M0 0 C0.99 0.495 0.99 0.495 2 1 C2.6328125 3.28515625 2.6328125 3.28515625 3.125 6.0625 C3.29257812 6.98160156 3.46015625 7.90070312 3.6328125 8.84765625 C3.75398438 9.55792969 3.87515625 10.26820312 4 11 C2.015625 9.76171875 2.015625 9.76171875 0 8 C-0.52799676 5.23857697 -0.18598981 2.83634455 0 0 Z " fill="#5A4346" transform="translate(58,52)"/>
<path d="M0 0 C0.33 0.66 0.66 1.32 1 2 C-0.98 4.97 -2.96 7.94 -5 11 C-5.33 9.68 -5.66 8.36 -6 7 C-4.1875 4.9375 -4.1875 4.9375 -2 3 C-1.34 2.01 -0.68 1.02 0 0 Z " fill="#403A37" transform="translate(150,45)"/>
<path d="M0 0 C1.32 0 2.64 0 4 0 C4.33 1.98 4.66 3.96 5 6 C3.35 6 1.7 6 0 6 C0.185625 5.38125 0.37125 4.7625 0.5625 4.125 C1.23686176 1.95839822 1.23686176 1.95839822 0 0 Z " fill="#55514F" transform="translate(53,45)"/>
<path d="M0 0 C2 4 2 4 1.625 6.25 C1.41875 6.8275 1.2125 7.405 1 8 C-0.32 8.33 -1.64 8.66 -3 9 C-2.01 6.03 -1.02 3.06 0 0 Z " fill="#DAF2F9" transform="translate(14,43)"/>
<path d="M0 0 C0.99 1.485 0.99 1.485 2 3 C4.56675597 5.69838448 6.89548863 7.93032576 10 10 C7.8125 10.375 7.8125 10.375 5 10 C2.1875 7.25 2.1875 7.25 0 4 C0 2.68 0 1.36 0 0 Z " fill="#1C1815" transform="translate(117,29)"/>
<path d="M0 0 C0.66 1.32 1.32 2.64 2 4 C0.35 6.31 -1.3 8.62 -3 11 C-3.33 10.34 -3.66 9.68 -4 9 C-3.22265625 6.8359375 -3.22265625 6.8359375 -2.0625 4.375 C-1.68222656 3.55773437 -1.30195312 2.74046875 -0.91015625 1.8984375 C-0.60980469 1.27195312 -0.30945313 0.64546875 0 0 Z " fill="#757075" transform="translate(77,88)"/>
<path d="M0 0 C2.64 1.98 5.28 3.96 8 6 C7.67 6.66 7.34 7.32 7 8 C6.34 8 5.68 8 5 8 C5 7.34 5 6.68 5 6 C4.34 6 3.68 6 3 6 C0 2.53846154 0 2.53846154 0 0 Z " fill="#77686D" transform="translate(75,78)"/>
<path d="M0 0 C2.5 2.3125 2.5 2.3125 5 5 C5 5.99 5 6.98 5 8 C2.5 6.8125 2.5 6.8125 0 5 C-0.3125 2.3125 -0.3125 2.3125 0 0 Z " fill="#4A4A49" transform="translate(68,53)"/>
<path d="M0 0 C0.99 0.33 1.98 0.66 3 1 C-1.625 5.875 -1.625 5.875 -5 7 C-3.70700306 4.11562221 -2.34058637 2.12780579 0 0 Z " fill="#545250" transform="translate(24,57)"/>
<path d="M0 0 C1.32 0.33 2.64 0.66 4 1 C4 3.31 4 5.62 4 8 C0 3.375 0 3.375 0 0 Z " fill="#708DAC" transform="translate(12,37)"/>
<path d="M0 0 C4.05281712 1.22527029 7.44360764 2.69880494 11 5 C10.01 5.495 10.01 5.495 9 6 C2.4375 3.65625 2.4375 3.65625 0 0 Z " fill="#644C50" transform="translate(19,149)"/>
<path d="M0 0 C0.6875 1.75 0.6875 1.75 1 4 C-0.4375 6.25 -0.4375 6.25 -2 8 C-4.97 7.505 -4.97 7.505 -8 7 C-8 6.67 -8 6.34 -8 6 C-7.05125 5.7525 -6.1025 5.505 -5.125 5.25 C-1.91306809 4.3142923 -1.91306809 4.3142923 -0.625 1.875 C-0.41875 1.25625 -0.2125 0.6375 0 0 Z " fill="#212323" transform="translate(41,142)"/>
<path d="M0 0 C0.66 0.33 1.32 0.66 2 1 C-2.43076923 6.78461538 -2.43076923 6.78461538 -5.3125 7.875 C-5.869375 7.91625 -6.42625 7.9575 -7 8 C-3.375 2.25 -3.375 2.25 0 0 Z " fill="#85838B" transform="translate(54,113)"/>
<path d="M0 0 C2.31 0 4.62 0 7 0 C6.625 2.4375 6.625 2.4375 6 5 C5.01 5.495 5.01 5.495 4 6 C3.67 4.35 3.34 2.7 3 1 C2.01 0.67 1.02 0.34 0 0 Z " fill="#67788B" transform="translate(126,4)"/>
<path d="M0 0 C1.65 0 3.3 0 5 0 C5 0.66 5 1.32 5 2 C5.66 2.33 6.32 2.66 7 3 C6.67 3.66 6.34 4.32 6 5 C5.34 5 4.68 5 4 5 C4 4.34 4 3.68 4 3 C2.68 2.67 1.36 2.34 0 2 C0 1.34 0 0.68 0 0 Z " fill="#A7C0DB" transform="translate(124,5)"/>
<path d="M0 0 C-0.3125 1.875 -0.3125 1.875 -1 4 C-1.99 4.66 -2.98 5.32 -4 6 C-4.33 4.68 -4.66 3.36 -5 2 C-2 0 -2 0 0 0 Z " fill="#353534" transform="translate(147,28)"/>
<path d="M0 0 C0 0.99 0 1.98 0 3 C-1.65 3.66 -3.3 4.32 -5 5 C-5.66 4.34 -6.32 3.68 -7 3 C-2.25 0 -2.25 0 0 0 Z " fill="#222221" transform="translate(116,7)"/>
<path d="M0 0 C-0.33 0.99 -0.66 1.98 -1 3 C-4.3 3 -7.6 3 -11 3 C-11 2.67 -11 2.34 -11 2 C-9.5422647 1.664061 -8.08378894 1.33133376 -6.625 1 C-5.40683594 0.7215625 -5.40683594 0.7215625 -4.1640625 0.4375 C-2 0 -2 0 0 0 Z " fill="#553C40" transform="translate(42,153)"/>
<path d="M0 0 C0.70125 0.474375 1.4025 0.94875 2.125 1.4375 C5.16081337 3.08739857 7.59168786 3.60368464 11 4 C11 4.33 11 4.66 11 5 C3.57142857 5.28571429 3.57142857 5.28571429 0 3 C0 2.01 0 1.02 0 0 Z " fill="#7A7075" transform="translate(25,149)"/>
<path d="M0 0 C0.66 0 1.32 0 2 0 C2.33 2.31 2.66 4.62 3 7 C2.01 6.67 1.02 6.34 0 6 C0 4.02 0 2.04 0 0 Z " fill="#5A728D" transform="translate(17,41)"/>
<path d="M0 0 C0.66 1.32 1.32 2.64 2 4 C0.02 4.99 0.02 4.99 -2 6 C-2 2 -2 2 0 0 Z " fill="#20201F" transform="translate(141,31)"/>
<path d="" fill="#FF0000" transform="translate(0,0)"/>
<path d="" fill="#FF0000" transform="translate(0,0)"/>
</svg>
